<?xml version="1.0" standalone="no"?>
<!DOCTYPE svg PUBLIC "-//W3C//DTD SVG 20010904//EN"
 "http://www.w3.org/TR/2001/REC-SVG-20010904/DTD/svg10.dtd">
<svg version="1.0" xmlns="http://www.w3.org/2000/svg"
 width="503.000000pt" height="404.000000pt" viewBox="0 0 503.000000 404.000000"
 preserveAspectRatio="xMidYMid meet">

<g transform="translate(0.000000,404.000000) scale(0.100000,-0.100000)"
fill="#000000" stroke="none">
<path d="M2129 3573 c-40 -20 -99 -72 -229 -202 -306 -308 -554 -527 -990
-876 -285 -228 -343 -283 -386 -366 -24 -45 -29 -66 -29 -129 0 -65 4 -84 33
-141 92 -183 390 -452 1047 -946 154 -116 323 -245 375 -287 134 -108 183
-130 293 -135 83 -3 93 -1 152 28 71 35 131 96 167 169 19 38 23 63 23 132 0
72 -4 92 -27 135 -45 85 -91 128 -402 377 -165 132 -316 255 -333 271 -59 55
-35 128 47 141 19 3 211 20 425 36 1418 110 1557 127 1656 203 62 47 84 96 84
187 -1 91 -22 138 -90 198 -77 68 -174 101 -370 128 -371 50 -621 53 -1130 14
-395 -30 -636 -43 -645 -34 -5 5 -11 20 -15 34 -5 23 27 60 308 347 268 273
320 331 347 386 57 116 50 195 -23 274 -80 87 -184 107 -288 56z"/>
</g>
</svg>
