<?xml version="1.0" standalone="no"?>
<!DOCTYPE svg PUBLIC "-//W3C//DTD SVG 20010904//EN"
 "http://www.w3.org/TR/2001/REC-SVG-20010904/DTD/svg10.dtd">
<svg version="1.0" xmlns="http://www.w3.org/2000/svg"
 width="3840.000000pt" height="2160.000000pt" viewBox="0 0 3840.000000 2160.000000"
 preserveAspectRatio="xMidYMid meet">

<g transform="translate(0.000000,2160.000000) scale(0.100000,-0.100000)"
fill="#000000" stroke="none">
<path d="M6698 15243 c-8 -10 -31 -47 -51 -83 -37 -67 -217 -255 -324 -339
-73 -57 -71 -111 3 -111 45 0 126 63 255 197 89 92 115 126 153 203 51 102 53
112 30 134 -20 21 -47 20 -66 -1z"/>
<path d="M6776 15128 c-43 -61 -9 -92 129 -118 129 -24 222 -26 270 -6 29 13
35 20 35 45 0 44 -30 59 -141 71 -51 6 -114 15 -139 20 -83 17 -137 13 -154
-12z"/>
<path d="M8022 15105 c-154 -56 -282 -191 -230 -243 22 -22 50 -12 100 33 26
25 76 59 111 75 55 27 73 30 155 30 73 0 101 -4 132 -20 60 -31 108 -78 138
-134 24 -46 27 -64 30 -176 3 -111 0 -136 -24 -225 -45 -170 -42 -215 15 -215
78 0 141 174 141 393 0 244 -63 369 -234 463 -47 26 -61 29 -171 31 -89 2
-131 -1 -163 -12z"/>
<path d="M7659 14904 c-22 -27 -25 -456 -5 -623 17 -137 45 -268 71 -331 8
-19 16 -48 17 -65 3 -27 9 -32 58 -48 219 -72 391 -59 440 33 7 13 -7 15 -98
16 -92 0 -216 14 -274 30 -12 4 -18 15 -18 32 0 15 -7 50 -15 77 -45 148 -84
514 -85 802 0 68 -15 93 -54 93 -13 0 -30 -7 -37 -16z"/>
<path d="M6755 14896 c-56 -18 -99 -41 -140 -77 -75 -66 -18 -148 63 -90 15
10 55 32 88 49 34 17 69 38 78 47 22 22 20 62 -3 75 -24 12 -36 12 -86 -4z"/>
<path d="M7988 14839 c-42 -22 -56 -56 -42 -98 12 -33 48 -40 66 -12 10 16 23
21 55 21 29 0 43 -4 43 -13 0 -26 -36 -47 -78 -47 -65 0 -83 -27 -45 -72 9
-10 11 -18 4 -22 -19 -12 -33 -84 -21 -106 9 -18 5 -23 -36 -48 -78 -45 -94
-61 -94 -91 0 -32 16 -51 43 -51 10 0 71 31 135 70 64 38 162 88 217 111 55
23 103 47 107 53 30 45 -139 47 -236 3 l-58 -27 6 23 c3 12 6 30 6 40 0 12 8
17 28 17 43 0 89 35 117 89 31 62 33 119 4 155 -19 24 -26 26 -102 26 -62 -1
-91 -6 -119 -21z"/>
<path d="M6820 14704 c-144 -38 -262 -133 -294 -237 -15 -49 -16 -64 -6 -108
17 -68 57 -114 92 -106 36 9 41 31 21 87 -15 41 -15 51 -3 80 8 19 27 49 43
67 28 31 95 79 101 72 2 -2 1 -30 -1 -61 -5 -48 -9 -58 -24 -58 -23 0 -48 -36
-42 -61 3 -11 17 -26 31 -33 25 -13 25 -13 -31 -39 -76 -35 -90 -85 -34 -121
22 -15 30 -13 133 24 60 23 127 47 149 55 58 21 145 85 182 133 76 99 57 253
-37 303 -43 24 -197 25 -280 3z m228 -110 c32 -22 30 -91 -5 -155 -24 -45 -29
-49 -62 -49 l-37 0 4 40 c5 50 -12 73 -50 68 -26 -4 -28 -2 -28 28 0 21 -6 37
-17 43 -24 13 -13 21 44 31 78 13 127 11 151 -6z"/>
<path d="M5771 14543 c-52 -63 -91 -146 -91 -195 0 -46 14 -68 53 -82 17 -6
16 -9 -13 -42 -51 -59 -65 -119 -35 -160 18 -27 83 -38 137 -23 51 13 183 76
262 123 32 20 62 34 66 31 5 -3 12 -20 15 -38 15 -68 74 -98 115 -57 35 35 22
121 -28 187 -46 62 -96 61 -211 -5 -102 -59 -212 -115 -216 -110 -2 2 34 50
80 108 84 105 100 141 73 168 -15 15 -54 16 -63 2 -4 -6 -29 -22 -56 -35 -60
-31 -63 -21 -20 64 27 53 29 60 15 80 -22 31 -48 26 -83 -16z"/>
<path d="M8128 14386 c-59 -16 -88 -36 -130 -87 -18 -23 -48 -57 -65 -76 -36
-37 -40 -60 -22 -143 12 -56 43 -86 79 -75 17 5 20 2 20 -20 0 -31 30 -45 100
-45 38 0 55 6 79 26 17 14 31 34 31 45 0 19 -16 22 -166 24 l-32 0 -15 90
c-16 102 -21 92 68 144 28 16 66 32 87 36 48 9 58 -10 58 -109 0 -93 5 -106
41 -106 46 0 64 38 64 135 0 147 -61 197 -197 161z"/>
<path d="M6827 14175 c-16 -8 -37 -25 -48 -37 -42 -48 -49 -81 -49 -228 0
-128 2 -142 20 -157 11 -10 20 -22 20 -29 0 -19 35 -44 61 -44 34 0 116 54
137 90 9 16 26 31 37 34 46 12 89 119 83 205 -5 66 -29 107 -91 152 -32 23
-50 29 -91 29 -28 0 -64 -7 -79 -15z m109 -119 l28 -23 -40 -13 c-21 -7 -43
-16 -48 -21 -19 -17 -34 -9 -38 22 -4 22 1 34 16 45 29 20 51 18 82 -10z m16
-172 c-3 -38 -7 -42 -35 -47 -18 -4 -42 -9 -54 -13 -19 -5 -23 -2 -23 14 0 13
18 31 58 54 31 19 57 34 58 34 0 -1 -1 -20 -4 -42z"/>
<path d="M8058 14179 c-21 -12 -24 -69 -6 -87 7 -7 26 -12 43 -12 38 0 55 16
55 50 0 48 -50 74 -92 49z"/>
<path d="M6043 13996 c-31 -27 -44 -33 -71 -29 -59 9 -77 -31 -48 -102 30 -72
114 -49 102 27 -4 27 -3 38 6 38 20 0 101 -32 130 -52 33 -23 60 -23 81 0 40
44 11 105 -65 137 -59 24 -93 19 -135 -19z"/>
<path d="M5756 13925 c-11 -12 -16 -35 -16 -80 0 -52 4 -69 23 -91 29 -33 67
-28 85 11 16 34 15 113 -1 145 -15 31 -66 39 -91 15z"/>
<path d="M5673 13403 c9 -2 23 -2 30 0 6 3 -1 5 -18 5 -16 0 -22 -2 -12 -5z"/>
</g>
</svg>
