<?xml version="1.0" standalone="no"?>
<!DOCTYPE svg PUBLIC "-//W3C//DTD SVG 20010904//EN"
 "http://www.w3.org/TR/2001/REC-SVG-20010904/DTD/svg10.dtd">
<svg version="1.0" xmlns="http://www.w3.org/2000/svg"
 width="1121.000000pt" height="395.000000pt" viewBox="0 0 1121.000000 395.000000"
 preserveAspectRatio="xMidYMid meet">

<g transform="translate(0.000000,395.000000) scale(0.100000,-0.100000)"
fill="#000000" stroke="none">
<path d="M7008 2694 c-122 -22 -150 -34 -173 -75 l-20 -37 -17 38 c-29 70
-100 86 -150 33 -22 -24 -23 -33 -30 -231 -7 -230 -12 -288 -34 -412 -31 -171
-106 -391 -171 -497 -55 -91 -63 -108 -63 -135 0 -88 81 -150 165 -127 57 16
100 63 154 168 120 233 191 521 191 771 0 91 -14 248 -27 299 l-6 24 32 -24
c31 -23 40 -24 150 -21 99 3 128 0 181 -18 141 -47 238 -115 287 -198 38 -65
44 -191 15 -289 -37 -120 -94 -193 -237 -302 -89 -68 -104 -129 -46 -185 51
-49 165 -52 264 -7 132 59 246 212 309 411 18 60 23 96 22 180 -2 206 -48 326
-173 450 -166 165 -378 228 -623 184z"/>
<path d="M5775 2642 c-69 -32 -74 -53 -78 -322 -5 -259 -13 -305 -91 -524 -55
-153 -66 -170 -114 -177 -46 -6 -82 -33 -82 -61 0 -23 -11 -23 -59 1 -110 57
-195 234 -295 611 -19 74 -42 171 -51 215 -20 100 -35 125 -77 125 -17 0 -46
5 -63 11 -18 7 -44 9 -58 5 -49 -12 -56 -36 -60 -226 -3 -126 -10 -203 -25
-275 -57 -270 -141 -498 -248 -676 -45 -76 -47 -128 -4 -171 28 -28 35 -30 83
-25 46 4 56 10 90 48 52 59 146 253 201 417 44 132 56 160 56 130 0 -35 64
-182 109 -251 106 -161 266 -247 462 -247 52 0 104 6 130 15 88 31 158 108
185 203 9 30 33 86 54 126 47 87 101 240 131 372 40 177 25 550 -27 629 -37
56 -107 76 -169 47z"/>
<path d="M3754 2639 c-27 -4 -120 -27 -205 -49 -84 -22 -206 -52 -269 -65
-140 -30 -174 -45 -200 -87 -37 -61 -15 -166 39 -183 12 -3 21 -11 21 -17 0
-24 -131 -291 -184 -373 -119 -187 -175 -341 -162 -443 18 -138 133 -246 318
-299 84 -24 399 -29 518 -9 182 32 317 89 373 159 61 75 41 176 -43 220 -44
23 -89 17 -190 -22 -117 -46 -211 -61 -372 -61 -152 0 -248 15 -293 44 -27 18
-28 20 -22 95 4 53 21 125 57 236 104 326 130 410 130 431 0 19 7 22 85 28 50
3 175 29 303 61 324 82 422 136 422 235 0 42 -21 75 -60 95 -32 17 -178 19
-266 4z"/>
<path d="M3535 1986 c-199 -38 -275 -80 -275 -151 0 -70 43 -115 110 -115 16
0 66 9 112 20 46 12 137 25 203 30 163 12 201 19 238 44 66 45 57 112 -21 155
-38 20 -60 24 -170 27 -80 2 -153 -1 -197 -10z"/>
<path d="M8344 1716 c-77 -34 -117 -150 -79 -230 28 -59 76 -90 150 -94 77 -5
125 10 169 52 117 110 21 287 -156 286 -29 -1 -67 -7 -84 -14z"/>
</g>
</svg>
