<?xml version="1.0" standalone="no"?>
<!DOCTYPE svg PUBLIC "-//W3C//DTD SVG 20010904//EN"
 "http://www.w3.org/TR/2001/REC-SVG-20010904/DTD/svg10.dtd">
<svg version="1.0" xmlns="http://www.w3.org/2000/svg"
 width="512.000000pt" height="119.000000pt" viewBox="0 0 512.000000 119.000000"
 preserveAspectRatio="xMidYMid meet">

<g transform="translate(0.000000,119.000000) scale(0.100000,-0.100000)"
fill="#000000" stroke="none">
<path d="M3751 1119 c-117 -4 -358 -15 -535 -23 -176 -9 -427 -21 -556 -27
-129 -6 -548 -10 -930 -10 -382 0 -816 -4 -965 -8 -251 -8 -276 -11 -351 -35
-93 -30 -183 -85 -236 -144 -68 -75 -86 -205 -42 -299 28 -58 107 -129 187
-167 150 -72 87 -68 1172 -77 1203 -11 1540 -2 2235 62 374 34 641 86 752 146
123 67 183 202 146 325 -27 90 -146 179 -302 227 -64 20 -258 43 -331 39 -16
0 -126 -5 -244 -9z"/>
</g>
</svg>
