<?xml version="1.0" standalone="no"?>
<!DOCTYPE svg PUBLIC "-//W3C//DTD SVG 20010904//EN"
 "http://www.w3.org/TR/2001/REC-SVG-20010904/DTD/svg10.dtd">
<svg version="1.0" xmlns="http://www.w3.org/2000/svg"
 width="514.000000pt" height="118.000000pt" viewBox="0 0 514.000000 118.000000"
 preserveAspectRatio="xMidYMid meet">

<g transform="translate(0.000000,118.000000) scale(0.100000,-0.100000)"
fill="#000000" stroke="none">
<path d="M3265 889 c-169 -8 -1004 -48 -1320 -65 -66 -3 -300 -9 -520 -14
-383 -7 -404 -9 -498 -33 -175 -46 -271 -116 -302 -221 -19 -62 -19 -110 -1
-170 36 -117 133 -185 331 -228 81 -17 154 -20 745 -29 736 -10 847 -7 1545
46 747 56 832 67 1094 141 139 40 203 69 243 111 75 78 78 217 6 298 -42 49
-130 87 -298 131 l-145 38 -345 2 c-190 1 -430 -2 -535 -7z"/>
</g>
</svg>
