<?xml version="1.0" standalone="no"?>
<!DOCTYPE svg PUBLIC "-//W3C//DTD SVG 20010904//EN"
 "http://www.w3.org/TR/2001/REC-SVG-20010904/DTD/svg10.dtd">
<svg version="1.0" xmlns="http://www.w3.org/2000/svg"
 width="3230.000000pt" height="255.000000pt" viewBox="0 0 3230.000000 255.000000"
 preserveAspectRatio="xMidYMid meet">

<g transform="translate(0.000000,255.000000) scale(0.100000,-0.100000)"
fill="#000000" stroke="none">
<path d="M31017 1284 c-4 -4 -1646 -11 -3649 -15 -2132 -4 -3836 -12 -4108
-19 -565 -13 -7549 -6 -8085 8 -206 6 -3369 10 -7683 11 l-7333 1 -24 -25
c-33 -32 -33 -78 0 -110 l24 -25 7333 1 c4314 1 7477 5 7683 11 526 14 7530
21 8080 8 361 -9 5962 -32 8273 -34 l524 -1 29 33 c38 42 38 82 0 124 l-29 33
-514 3 c-283 1 -517 -1 -521 -4z"/>
</g>
</svg>
