<?xml version="1.0" standalone="no"?>
<!DOCTYPE svg PUBLIC "-//W3C//DTD SVG 20010904//EN"
 "http://www.w3.org/TR/2001/REC-SVG-20010904/DTD/svg10.dtd">
<svg version="1.0" xmlns="http://www.w3.org/2000/svg"
 width="4423.000000pt" height="3118.000000pt" viewBox="0 0 4423.000000 3118.000000"
 preserveAspectRatio="xMidYMid meet">

<g transform="translate(0.000000,3118.000000) scale(0.100000,-0.100000)"
fill="#000000" stroke="none">
<path d="M18173 30251 c-58 -27 -127 -93 -182 -176 -210 -315 -527 -1069 -605
-1441 -26 -125 -45 -553 -71 -1624 -9 -360 -18 -668 -21 -685 -4 -30 -5 -30
-552 -228 -536 -195 -973 -344 -1722 -587 -595 -194 -1052 -360 -1555 -568
-397 -163 -602 -238 -1245 -452 -1075 -357 -2731 -944 -3705 -1312 -556 -210
-938 -349 -949 -345 -6 2 35 38 89 80 620 479 3417 2323 4565 3008 418 250
438 262 560 348 64 44 170 124 235 177 158 127 268 201 387 258 166 81 370
230 452 330 111 136 101 259 -34 437 -124 164 -516 556 -634 634 -70 47 -130
59 -224 45 -369 -56 -2504 -694 -3532 -1055 -850 -299 -2134 -789 -2585 -987
-93 -41 -204 -88 -245 -103 -272 -100 -734 -317 -945 -443 -185 -110 -249
-171 -310 -293 -47 -91 -66 -175 -66 -283 -1 -196 60 -336 211 -486 102 -103
174 -148 275 -175 113 -29 277 -16 480 39 50 13 191 51 315 84 124 34 545 142
935 242 391 100 1075 275 1520 390 950 244 862 223 871 209 11 -18 -140 -157
-401 -369 -457 -370 -645 -531 -1745 -1496 -968 -849 -1184 -1030 -1415 -1182
-71 -47 -166 -120 -210 -162 -93 -89 -150 -132 -340 -263 -339 -233 -625 -502
-625 -590 0 -34 91 -128 211 -217 115 -85 147 -100 218 -100 97 0 247 55 756
275 609 264 788 340 1096 463 405 163 840 329 1209 462 310 112 1036 382 1355
505 548 210 1620 573 2432 824 144 45 817 241 1495 435 678 195 1523 437 1878
539 757 218 1293 365 1341 369 33 3 34 2 37 -40 6 -76 -41 -293 -224 -1047
-314 -1295 -454 -1727 -799 -2461 l-99 -210 -82 62 c-212 165 -531 321 -689
338 -61 7 -111 -10 -138 -45 -49 -67 -41 -186 33 -479 116 -464 196 -977 170
-1094 -33 -150 -283 -625 -505 -961 -152 -230 -294 -405 -660 -810 -235 -261
-341 -387 -444 -529 -79 -109 -148 -241 -158 -298 -27 -172 220 -182 540 -21
250 125 651 392 942 627 55 45 176 148 269 229 92 82 172 145 176 140 4 -4 17
-73 29 -153 64 -419 104 -504 257 -546 52 -14 91 -16 221 -11 188 6 249 20
392 89 89 43 116 62 191 136 167 166 279 389 326 648 25 137 25 477 0 659 -44
323 -113 573 -241 869 l-66 152 197 399 c417 850 542 1137 749 1724 309 876
430 1274 640 2101 164 643 213 822 228 832 45 28 385 103 1632 358 1108 227
1591 332 2090 457 274 68 640 171 789 222 49 17 91 29 93 27 7 -7 -147 -146
-422 -381 -1224 -1046 -2155 -1979 -2695 -2700 -710 -948 -1211 -1965 -1360
-2760 -26 -141 -146 -1043 -165 -1240 -82 -874 68 -1742 416 -2405 74 -140
218 -359 329 -500 107 -136 444 -471 583 -580 806 -635 1784 -980 3057 -1081
225 -18 735 -15 960 5 786 71 1491 271 2247 636 617 298 1312 741 1798 1146
168 139 457 428 569 569 475 594 646 1237 510 1915 -176 877 -920 1560 -1950
1789 -217 48 -569 72 -1079 72 -455 0 -678 -25 -888 -101 -111 -41 -229 -116
-246 -158 -20 -48 0 -75 139 -191 848 -705 1104 -980 1254 -1348 121 -294 113
-438 -36 -738 -138 -275 -204 -349 -473 -531 -636 -429 -1241 -704 -2080 -943
-399 -115 -687 -174 -990 -206 -179 -19 -513 -22 -680 -5 -428 42 -965 190
-1245 342 -532 291 -898 791 -1110 1513 -95 325 -138 843 -127 1525 7 434 21
576 83 823 202 811 678 1837 1255 2702 336 504 540 746 1104 1310 481 482 747
722 1020 921 357 260 894 692 1245 1001 352 310 513 521 570 748 26 100 37
298 21 379 -14 76 -39 123 -109 211 -126 157 -276 285 -403 345 -168 78 -297
79 -588 6 -787 -198 -2310 -658 -4401 -1328 l-385 -124 -7 161 c-15 356 -39
1007 -53 1460 -8 264 -22 559 -30 655 -43 494 -116 900 -182 1021 -54 99 -172
189 -248 189 -16 0 -49 -9 -72 -19z"/>
<path d="M8830 21069 c-52 -5 -174 -21 -270 -35 -805 -116 -1341 -328 -1836
-725 -235 -189 -498 -472 -753 -812 -104 -138 -149 -167 -258 -167 -158 0
-273 -41 -399 -142 -191 -154 -274 -314 -343 -669 -17 -85 -49 -248 -72 -364
-144 -738 -391 -1693 -716 -2775 -292 -976 -475 -1685 -490 -1900 -11 -162 53
-316 187 -451 140 -141 278 -197 455 -185 212 13 355 83 555 271 150 140 296
229 411 250 42 8 79 -7 79 -32 0 -23 -179 -196 -480 -464 -956 -850 -1548
-1337 -2020 -1664 -839 -581 -1681 -1351 -2000 -1828 -147 -221 -220 -474
-207 -726 24 -482 351 -766 761 -664 228 56 388 210 756 723 355 495 709 903
1159 1334 539 516 1084 917 1606 1180 292 148 413 181 690 192 192 8 262 -2
389 -56 50 -21 141 -50 201 -64 206 -49 230 -57 272 -85 25 -17 68 -33 103
-40 39 -6 84 -24 123 -48 64 -39 433 -313 603 -449 362 -287 758 -691 883
-898 64 -107 117 -308 156 -598 83 -619 427 -1025 965 -1139 135 -28 344 -31
473 -5 253 49 455 159 642 350 208 212 325 461 355 759 25 246 -50 744 -153
1022 -107 287 -287 612 -487 880 -430 575 -1101 1033 -1889 1289 -400 131
-741 191 -1261 221 -151 9 -276 18 -277 19 -10 10 413 391 862 775 389 334
551 485 753 703 618 667 1157 1432 1666 2361 111 202 466 913 541 1082 67 150
245 610 335 865 196 555 279 998 250 1340 -40 493 -229 855 -559 1075 -255
170 -531 250 -976 285 -189 15 -674 20 -785 9z m-290 -1134 c194 -32 408 -99
556 -173 160 -80 257 -176 305 -301 42 -107 20 -390 -46 -600 -23 -71 -34 -90
-76 -131 -27 -26 -49 -57 -49 -68 0 -29 -74 -134 -129 -185 -61 -54 -147 -100
-258 -138 -132 -44 -230 -60 -448 -69 -227 -10 -282 -20 -688 -124 -361 -93
-499 -145 -740 -280 -357 -200 -680 -483 -777 -681 -67 -135 -74 -179 -75
-440 0 -221 1 -232 23 -273 38 -70 192 -172 260 -172 114 1 646 341 877 560
49 47 122 111 160 142 149 119 412 274 542 319 165 56 262 -27 223 -193 -22
-94 -73 -188 -229 -421 -188 -281 -215 -305 -440 -392 -189 -72 -820 -371
-1151 -545 -382 -200 -522 -292 -662 -433 -110 -112 -181 -201 -212 -267 -26
-57 -27 -180 -3 -261 19 -65 69 -143 110 -173 36 -26 115 -26 297 2 212 33
293 38 309 18 11 -13 11 -20 -3 -41 -48 -73 -290 -210 -482 -274 -170 -56
-353 -76 -446 -51 -21 6 -91 46 -156 89 l-119 79 4 193 c9 478 50 753 178
1194 31 105 89 314 131 465 235 861 385 1312 624 1885 51 121 141 341 201 488
122 304 170 386 297 514 156 157 357 291 667 443 359 176 635 267 925 305 128
17 365 12 500 -10z"/>
<path d="M34815 18414 c-141 -21 -235 -73 -356 -193 -52 -53 -133 -149 -179
-214 -116 -164 -112 -162 -290 -162 -163 -1 -224 -14 -300 -65 -25 -16 -57
-30 -72 -30 -15 0 -54 19 -92 44 -35 25 -83 54 -105 66 -106 54 -366 84 -511
60 -41 -7 -112 -26 -157 -42 -169 -61 -432 -268 -489 -385 -32 -64 -37 -150
-11 -198 38 -74 136 -133 264 -160 92 -20 322 -19 421 0 150 30 337 145 330
204 -4 39 -51 49 -269 61 -239 13 -365 36 -356 63 2 7 51 44 109 84 136 91
228 123 359 123 102 0 183 -22 259 -72 70 -46 90 -82 106 -195 55 -376 77
-464 132 -532 47 -59 62 -63 202 -57 289 12 509 80 600 184 51 58 70 116 79
241 10 138 7 136 188 144 163 7 261 30 382 87 113 54 189 111 287 211 154 161
224 298 224 446 0 115 -66 233 -148 266 -94 38 -425 49 -607 21z m361 -295
c24 -6 47 -16 50 -21 13 -21 -10 -64 -64 -120 -156 -164 -350 -248 -572 -248
-99 0 -160 17 -160 46 0 32 59 109 157 205 97 95 140 126 198 140 48 11 342
10 391 -2z"/>
<path d="M41324 13871 c-16 -10 -47 -38 -67 -62 -83 -96 -102 -236 -167 -1194
-51 -756 -92 -1286 -160 -2055 -76 -859 -90 -1151 -62 -1246 21 -70 110 -134
187 -134 149 0 275 198 319 501 66 453 147 1543 191 2559 36 853 45 1383 24
1480 -14 64 -43 99 -117 138 -68 37 -104 40 -148 13z"/>
<path d="M43144 13711 c-23 -11 -50 -33 -62 -52 -33 -54 -58 -250 -137 -1044
-64 -650 -128 -1241 -185 -1735 -131 -1118 -141 -1440 -48 -1528 86 -80 242
-62 290 33 92 179 268 1716 363 3170 18 274 31 933 21 1019 -16 123 -130 188
-242 137z"/>
<path d="M33869 13442 c-58 -38 -105 -93 -119 -139 -20 -71 -39 -208 -55 -383
-70 -811 -93 -1019 -151 -1360 -91 -538 -201 -865 -416 -1235 -233 -399 -346
-735 -350 -1034 -2 -120 8 -149 68 -190 138 -95 277 -55 388 112 117 177 304
572 431 912 98 264 153 373 225 445 149 149 416 242 517 181 23 -14 44 -45 77
-113 54 -110 76 -210 76 -340 -1 -185 -43 -296 -163 -424 -133 -143 -277 -231
-462 -283 -60 -17 -139 -46 -175 -64 -80 -40 -101 -75 -102 -172 -1 -121 67
-203 200 -241 86 -25 271 -15 382 21 328 106 597 361 747 707 192 443 59 1060
-279 1298 -38 27 -107 64 -152 82 -107 42 -187 42 -394 4 -84 -16 -155 -26
-158 -23 -6 6 3 72 46 342 34 206 55 410 70 674 13 238 13 1011 0 1082 -12 66
-32 94 -94 137 -60 40 -98 41 -157 4z"/>
<path d="M30218 12380 c-43 -13 -110 -64 -175 -133 -132 -141 -250 -335 -439
-724 -94 -191 -149 -293 -161 -297 -10 -3 -117 -28 -238 -56 -446 -104 -575
-154 -620 -240 -22 -42 -20 -174 4 -225 22 -48 66 -88 118 -107 59 -20 267
-15 392 10 58 12 106 20 108 19 1 -2 -27 -91 -62 -198 -81 -242 -137 -440
-167 -589 -19 -94 -23 -147 -22 -290 0 -161 2 -181 26 -252 65 -194 205 -314
428 -368 301 -72 709 73 821 291 29 57 30 149 3 186 -40 53 -87 68 -214 68
-63 0 -168 -9 -232 -19 -134 -21 -230 -18 -256 8 -27 27 -20 171 17 351 43
206 104 415 208 708 71 200 92 249 108 252 138 32 436 110 493 129 170 59 263
122 306 208 22 43 26 66 26 132 0 92 -11 121 -58 153 -62 41 -133 41 -424 -4
-64 -9 -120 -15 -123 -11 -18 18 162 365 282 544 143 212 150 269 45 378 -70
73 -129 96 -194 76z"/>
<path d="M16082 11340 c-56 -24 -110 -71 -125 -109 -34 -83 -46 -303 -68
-1156 l-11 -450 -124 -262 c-215 -455 -264 -587 -264 -709 0 -79 16 -118 66
-166 47 -45 80 -58 145 -58 98 0 186 68 269 209 88 152 212 443 280 660 62
196 189 438 356 677 125 181 203 258 224 224 14 -22 39 -172 49 -285 15 -169
-8 -429 -54 -605 -18 -69 -55 -176 -91 -260 -37 -87 -40 -212 -7 -276 40 -76
116 -124 198 -124 119 0 191 82 345 389 141 282 351 579 565 800 156 161 291
257 348 249 69 -10 115 -250 147 -773 32 -521 96 -692 299 -795 91 -45 152
-54 247 -35 240 48 447 235 447 404 0 166 -91 226 -305 201 -55 -6 -102 -9
-105 -6 -3 3 -18 157 -34 343 -16 186 -36 385 -45 443 -67 433 -208 662 -449
726 -67 18 -245 17 -325 -2 -155 -36 -304 -137 -565 -384 l-160 -150 -7 88
c-14 174 -98 372 -203 478 -77 78 -132 98 -246 92 -126 -7 -235 -72 -446 -264
l-63 -57 0 259 c-1 352 -11 481 -45 551 -49 99 -169 165 -243 133z"/>
<path d="M37670 11134 c-216 -41 -369 -133 -595 -359 -361 -360 -507 -641
-545 -1046 -29 -312 49 -502 248 -601 111 -56 197 -71 366 -65 114 4 158 10
231 31 223 67 391 173 705 446 69 60 129 109 134 110 5 1 26 -46 47 -104 41
-118 112 -239 177 -304 79 -80 229 -131 340 -117 188 23 295 138 295 316 0 97
-18 121 -128 174 -87 42 -122 69 -143 110 -41 82 -52 484 -18 679 50 292 -21
436 -214 436 -73 0 -121 -22 -173 -79 -41 -46 -54 -69 -112 -202 -76 -176
-210 -354 -406 -544 -251 -242 -427 -366 -580 -409 -73 -20 -169 -29 -219 -21
-59 10 -67 32 -52 143 33 251 179 511 421 752 137 137 215 197 284 219 20 7
111 16 201 20 187 9 241 26 284 91 20 30 23 45 20 102 -4 76 -21 106 -84 150
-78 56 -144 71 -309 74 -82 1 -161 0 -175 -2z"/>
<path d="M21670 10986 c-359 -76 -713 -357 -947 -755 -103 -174 -166 -345
-199 -541 -23 -141 -16 -397 14 -490 31 -93 86 -181 171 -272 184 -197 421
-300 773 -338 514 -54 1012 101 1239 386 97 122 121 216 77 304 -55 109 -147
105 -475 -21 -182 -70 -306 -104 -460 -124 -398 -52 -732 49 -828 250 -37 78
-52 142 -38 163 13 20 20 20 98 -9 156 -56 581 -27 833 56 446 149 792 549
770 890 -14 209 -227 401 -537 482 -79 21 -124 26 -261 29 -114 2 -185 -1
-230 -10z m480 -456 c43 -15 80 -53 80 -83 -1 -73 -120 -211 -246 -286 -209
-123 -435 -181 -711 -181 l-155 0 38 68 c51 93 115 170 232 284 160 155 223
189 395 208 94 11 322 5 367 -10z"/>
<path d="M25795 10799 c-272 -21 -451 -99 -720 -314 -411 -327 -745 -848 -745
-1161 0 -243 164 -440 425 -510 83 -22 286 -30 383 -14 248 40 463 159 738
409 l131 119 55 -112 c116 -232 260 -362 447 -402 317 -67 610 120 560 358
-19 87 -92 127 -270 147 -48 6 -102 16 -121 24 -42 18 -95 79 -109 127 -56
195 -17 551 96 873 66 190 70 239 27 308 -44 67 -103 116 -167 134 -59 18 -89
14 -187 -20 -44 -16 -48 -16 -94 4 -81 36 -239 47 -449 30z m295 -388 c0 -20
-62 -215 -85 -268 -90 -203 -319 -452 -604 -658 -179 -129 -287 -175 -411
-175 -80 0 -108 7 -115 29 -7 24 20 122 54 189 81 160 275 416 416 550 140
133 367 273 524 323 58 19 221 26 221 10z"/>
<path d="M22440 4332 c-47 -48 -52 -89 -47 -377 4 -277 12 -324 52 -351 35
-23 84 -14 108 18 19 25 21 50 29 311 7 209 6 296 -2 327 -13 50 -59 100 -90
100 -12 0 -34 -13 -50 -28z"/>
<path d="M21833 4314 c-4 -22 -8 -192 -8 -380 0 -385 -2 -374 72 -374 57 0 81
14 98 54 22 53 38 238 39 464 1 201 0 214 -19 228 -22 16 -72 32 -132 40 l-42
7 -8 -39z"/>
<path d="M17074 4296 c-20 -51 68 -199 150 -253 59 -40 133 -46 166 -13 27 27
25 48 -6 95 -30 47 -84 90 -174 138 -81 44 -128 55 -136 33z"/>
<path d="M7654 4256 c-30 -21 -40 -73 -59 -281 -46 -532 -129 -823 -312 -1099
-77 -116 -244 -290 -369 -384 -134 -101 -175 -152 -121 -152 89 0 484 279 590
418 71 92 131 189 194 317 77 153 112 257 123 359 16 159 56 184 77 48 17
-108 68 -244 157 -418 120 -233 191 -330 413 -568 l83 -90 102 43 c57 24 122
50 146 59 23 9 42 19 42 22 0 3 -38 20 -85 38 -138 55 -267 163 -396 335 -162
215 -251 424 -333 786 -56 243 -74 383 -56 447 11 37 10 47 -3 67 -32 49 -153
82 -193 53z"/>
<path d="M12432 4257 c-7 -8 -17 -38 -22 -68 -8 -45 -30 -1266 -30 -1681 l0
-128 109 0 109 0 -4 573 c-4 567 -19 1167 -31 1240 -7 43 -32 65 -85 73 -23 4
-38 1 -46 -9z"/>
<path d="M21144 4216 c-11 -29 5 -65 79 -174 61 -90 77 -108 101 -110 56 -7
166 51 166 87 0 32 -99 110 -215 168 -80 40 -123 50 -131 29z"/>
<path d="M27364 4210 c-12 -5 -68 -50 -125 -100 -129 -114 -237 -198 -346
-266 -80 -50 -111 -64 -176 -78 -20 -5 -33 -17 -43 -42 -19 -45 -31 -285 -39
-789 -4 -214 -8 -391 -10 -393 -1 -2 -65 3 -141 11 -77 8 -141 13 -144 11 -6
-6 154 -153 204 -187 33 -23 48 -27 76 -22 44 8 117 52 142 86 38 51 39 59 64
977 l6 213 97 81 c116 98 255 190 410 271 168 87 201 112 201 146 0 45 -59 91
-113 90 -23 0 -52 -4 -63 -9z"/>
<path d="M22806 4115 c-77 -52 -96 -69 -96 -87 0 -16 10 -18 103 -17 125 0
172 14 172 49 0 20 -10 30 -54 53 -67 33 -79 33 -125 2z"/>
<path d="M25835 4129 c-11 -17 16 -30 60 -27 28 2 40 8 40 18 0 19 -89 27
-100 9z"/>
<path d="M11956 4039 c-15 -12 -37 -42 -50 -67 -49 -96 -315 -700 -335 -760
-57 -167 11 -163 126 8 112 168 305 512 352 632 41 101 40 131 -3 174 -40 40
-54 42 -90 13z"/>
<path d="M17970 4043 c-48 -33 -65 -78 -37 -100 17 -14 132 -23 192 -15 59 8
70 30 33 69 -54 58 -140 79 -188 46z"/>
<path d="M30510 3974 c-99 -46 -145 -115 -86 -130 15 -3 27 -16 30 -30 17 -67
26 -316 26 -760 l0 -492 69 -15 c155 -36 387 -49 385 -22 0 6 -57 39 -127 75
l-125 65 -7 120 c-4 66 -7 199 -8 295 -2 200 2 213 76 252 33 18 58 23 122 23
98 0 156 -27 228 -104 87 -93 123 -204 115 -356 -6 -114 -23 -148 -123 -243
-42 -41 -74 -79 -72 -85 7 -20 117 -13 162 10 85 44 163 152 201 278 28 91 25
262 -5 338 -45 115 -125 187 -230 207 -29 5 -149 10 -267 10 l-212 0 -4 273
c-2 198 -6 278 -16 295 -17 30 -62 29 -132 -4z"/>
<path d="M17014 3878 c-27 -29 -86 -98 -131 -154 -105 -130 -236 -252 -315
-294 -77 -40 -98 -58 -98 -81 0 -34 39 -43 198 -47 l152 -4 0 -97 c-1 -376
-70 -514 -353 -709 -117 -81 -152 -114 -144 -136 10 -26 87 -1 252 81 283 141
374 276 435 643 27 165 45 226 72 245 16 10 47 15 105 15 l83 0 0 -227 c0
-249 15 -547 30 -604 14 -51 35 -66 126 -90 60 -16 122 -22 259 -26 204 -6
323 9 420 52 95 42 102 87 48 303 -28 111 -51 152 -87 152 -49 0 -75 -55 -85
-183 -5 -56 -15 -118 -24 -138 -34 -82 -117 -106 -310 -91 -71 5 -130 12 -132
14 -3 3 -8 162 -11 354 -7 362 -1 449 32 485 16 17 15 19 -12 30 -24 9 -438
26 -727 28 l-57 1 147 124 c258 216 306 271 282 328 -13 32 -67 78 -91 78 -8
0 -37 -24 -64 -52z"/>
<path d="M21516 3877 c-30 -30 -70 -111 -122 -244 -21 -57 -42 -103 -45 -103
-3 0 -32 21 -65 46 -145 114 -245 165 -284 144 -30 -16 -25 -41 23 -106 52
-70 205 -219 236 -229 11 -3 21 -15 21 -25 0 -28 -40 -150 -65 -200 -40 -78
-63 -92 -162 -101 -49 -4 -92 -8 -96 -8 -19 -2 8 -23 68 -51 95 -45 144 -120
144 -220 1 -25 -13 -99 -29 -164 -34 -134 -37 -187 -15 -210 33 -32 142 -33
174 -2 17 18 29 161 30 361 2 207 31 352 140 684 80 244 113 377 103 415 -11
39 -26 43 -56 13z"/>
<path d="M13099 3735 c-46 -34 -98 -96 -99 -117 0 -11 10 -20 26 -24 40 -10
246 1 272 15 36 19 28 55 -23 106 -40 41 -49 45 -93 45 -36 0 -57 -6 -83 -25z"/>
<path d="M17445 3709 c-16 -26 14 -71 129 -188 67 -69 148 -159 180 -199 70
-89 94 -106 129 -93 56 21 74 97 38 157 -42 69 -273 261 -375 312 -46 24 -91
29 -101 11z"/>
<path d="M22123 3653 c-16 -25 -18 -56 -16 -350 1 -178 0 -323 -1 -323 -2 0
-45 49 -95 109 -158 190 -279 250 -190 94 39 -67 36 -101 -15 -209 -63 -134
-61 -140 -61 145 0 299 1 295 -106 366 l-64 42 -3 -531 c-2 -554 2 -627 38
-646 33 -18 79 -12 105 15 21 20 25 34 25 84 0 33 5 84 11 113 13 60 75 187
117 237 l28 34 65 -54 c116 -99 149 -175 149 -348 0 -69 11 -108 34 -123 20
-14 94 -9 110 8 21 20 24 37 30 172 8 158 33 211 149 310 l51 44 48 -56 c36
-40 60 -59 89 -66 48 -13 69 -52 69 -129 0 -61 -16 -100 -44 -105 -12 -3 -41
-8 -66 -13 -39 -7 -45 -12 -48 -34 -4 -32 38 -70 113 -105 82 -39 126 -32 154
25 38 75 57 235 70 616 10 264 3 403 -22 451 -19 36 -67 73 -106 80 -24 5 -32
1 -48 -22 -19 -30 -22 -101 -13 -357 5 -172 -18 -179 -125 -42 -36 46 -79 95
-96 109 -65 55 -95 21 -78 -89 9 -56 8 -74 -6 -111 -16 -43 -69 -93 -83 -79
-4 4 -7 163 -7 353 0 314 -2 350 -18 380 -16 30 -21 32 -72 32 -48 0 -57 -3
-72 -27z"/>
<path d="M34200 3420 c-21 -13 -25 -127 -11 -339 24 -354 51 -462 132 -521 78
-56 186 -63 359 -21 107 26 115 26 140 -1 19 -20 31 -23 104 -23 62 0 89 4
109 18 32 21 35 52 8 81 -31 33 -42 134 -51 456 -5 193 -12 307 -20 329 -13
33 -13 33 -62 28 -53 -7 -158 -50 -158 -65 0 -6 7 -12 15 -16 25 -9 36 -55 45
-186 10 -149 -2 -367 -25 -430 -27 -77 -75 -114 -161 -125 -64 -9 -127 8 -153
42 -45 56 -53 111 -60 429 -8 369 -4 354 -119 354 -42 0 -84 -5 -92 -10z"/>
<path d="M38105 3415 c-5 -2 -36 -6 -69 -10 -52 -6 -65 -12 -108 -53 -60 -56
-129 -188 -135 -259 -5 -52 -12 -40 157 -246 l25 -30 -39 -31 c-86 -68 -116
-103 -116 -134 0 -48 9 -61 60 -87 26 -13 50 -31 54 -40 10 -27 -19 -69 -97
-139 -120 -107 -136 -178 -55 -251 51 -46 122 -78 246 -111 146 -38 215 -41
303 -14 257 78 408 219 397 370 -7 102 -81 165 -227 196 -84 18 -223 18 -281
0 -39 -12 -52 -12 -85 0 -71 24 -109 88 -83 140 22 45 58 64 183 94 129 32
199 62 258 110 91 76 120 199 78 326 -13 36 -20 72 -17 80 3 9 21 14 48 15 51
0 110 19 116 36 9 29 -53 37 -328 40 -151 1 -279 1 -285 -2z m151 -54 c50 -23
77 -56 104 -127 22 -60 26 -155 10 -216 -16 -56 -69 -120 -122 -146 -42 -21
-49 -22 -79 -9 -44 19 -73 51 -98 108 -54 121 -46 369 11 397 37 17 128 14
174 -7z m174 -885 c77 -40 130 -109 130 -169 0 -39 -42 -110 -90 -150 -128
-108 -325 -111 -443 -6 -134 117 -80 264 121 330 75 25 230 22 282 -5z"/>
<path d="M12984 3166 c-21 -19 -47 -47 -56 -64 -28 -48 -10 -55 135 -51 125 4
157 13 157 46 0 18 -46 60 -92 84 -57 29 -98 25 -144 -15z"/>
<path d="M11754 3089 c-3 -6 -2 -15 4 -21 14 -14 80 -14 93 -1 19 19 0 33 -46
33 -24 0 -47 -5 -51 -11z"/>
<path d="M3495 2970 c-109 -11 -135 -18 -135 -40 0 -14 13 -21 58 -31 65 -14
358 -18 443 -6 100 14 116 48 33 67 -58 13 -307 20 -399 10z"/>
<path d="M41529 2970 c-116 -11 -158 -34 -109 -60 56 -30 396 -35 523 -8 50
10 61 30 27 48 -45 24 -275 34 -441 20z"/>
<path d="M13219 2547 c-28 -14 -61 -75 -63 -119 -1 -39 17 -46 124 -46 114 -1
154 8 158 37 4 28 -24 60 -87 100 -56 35 -99 44 -132 28z"/>
</g>
</svg>
