<?xml version="1.0" standalone="no"?>
<!DOCTYPE svg PUBLIC "-//W3C//DTD SVG 20010904//EN"
 "http://www.w3.org/TR/2001/REC-SVG-20010904/DTD/svg10.dtd">
<svg version="1.0" xmlns="http://www.w3.org/2000/svg"
 width="3840.000000pt" height="2160.000000pt" viewBox="0 0 3840.000000 2160.000000"
 preserveAspectRatio="xMidYMid meet">

<g transform="translate(0.000000,2160.000000) scale(0.100000,-0.100000)"
fill="#000000" stroke="none">
<path d="M9202 15249 c-46 -42 -152 -286 -168 -386 -3 -21 -9 -152 -12 -292
l-7 -254 -160 -58 c-88 -33 -218 -77 -290 -100 -184 -57 -340 -113 -488 -175
-70 -29 -166 -65 -215 -79 -145 -45 -733 -252 -966 -341 -121 -46 -221 -83
-223 -81 -15 15 930 640 1194 789 36 21 89 58 119 83 29 25 68 52 86 59 53 23
118 75 129 104 15 38 -6 72 -101 167 -69 68 -84 79 -113 78 -50 -1 -502 -134
-797 -233 -190 -64 -574 -210 -675 -255 -16 -8 -52 -23 -80 -33 -122 -48 -242
-111 -268 -141 -53 -63 -48 -152 12 -212 52 -52 94 -59 196 -30 44 13 177 47
295 77 118 30 285 73 370 95 85 22 166 43 179 46 39 10 22 -10 -84 -95 -102
-82 -170 -141 -507 -437 -106 -94 -214 -183 -240 -198 -26 -15 -51 -34 -55
-41 -4 -8 -42 -37 -84 -65 -72 -48 -149 -120 -149 -140 0 -11 57 -60 86 -73
22 -10 60 4 285 103 146 64 356 146 549 214 52 19 149 55 215 81 177 69 564
198 770 255 99 28 317 91 485 139 168 49 341 98 385 110 44 12 88 24 98 26 25
8 23 -5 -39 -261 -67 -280 -111 -419 -171 -547 l-46 -98 -31 24 c-52 39 -136
77 -164 74 -36 -4 -39 -36 -13 -130 21 -78 41 -198 41 -248 0 -20 -24 -73 -66
-148 -67 -118 -101 -163 -228 -302 -75 -82 -120 -143 -130 -177 -11 -36 24
-48 85 -28 63 21 207 115 302 198 l74 65 11 -70 c14 -92 29 -108 101 -108 104
1 170 50 212 160 36 95 18 274 -41 407 l-20 46 84 171 c46 94 101 218 121 276
97 273 127 370 174 559 28 113 53 206 55 208 7 7 110 29 493 107 310 63 512
113 618 152 11 4 -25 -31 -80 -77 -287 -242 -539 -492 -666 -662 -188 -250
-313 -514 -338 -717 -5 -36 -16 -123 -26 -195 -35 -259 13 -514 131 -691 144
-216 398 -370 708 -429 437 -82 804 -3 1216 263 320 206 460 398 460 630 0
241 -164 440 -425 518 -76 22 -115 27 -250 31 -166 5 -257 -7 -312 -43 -28
-17 -29 -29 -5 -48 208 -170 283 -248 318 -335 32 -78 30 -110 -13 -193 -36
-68 -43 -75 -141 -139 -135 -88 -281 -152 -471 -206 -242 -70 -409 -70 -617
-1 -177 58 -296 200 -354 423 -27 101 -33 412 -11 510 57 252 222 583 409 817
77 96 315 330 390 383 123 87 350 274 393 326 53 62 69 102 69 169 0 43 -5 53
-45 98 -58 64 -115 88 -177 74 -155 -35 -513 -142 -993 -295 l-200 -64 -6 166
c-4 91 -8 216 -9 276 -3 114 -21 262 -40 327 -11 38 -42 68 -70 68 -9 0 -26
-9 -38 -21z"/>
<path d="M6995 13063 c-262 -25 -428 -93 -570 -230 -36 -36 -86 -92 -111 -126
-43 -60 -47 -62 -90 -63 -34 -1 -54 -9 -82 -31 -54 -44 -71 -80 -91 -195 -34
-188 -107 -475 -187 -736 -59 -192 -114 -406 -114 -445 0 -76 69 -147 142
-147 54 0 100 21 145 67 38 39 97 68 115 57 14 -9 3 -19 -241 -234 -124 -108
-277 -232 -339 -274 -221 -148 -458 -370 -514 -479 -91 -178 18 -361 175 -293
39 16 87 68 150 158 178 255 446 500 666 609 68 35 96 43 155 47 52 3 81 0
102 -11 16 -8 48 -18 71 -22 24 -4 45 -11 49 -16 3 -5 13 -9 22 -9 19 0 38
-13 163 -109 103 -80 204 -183 231 -236 12 -22 25 -75 30 -120 16 -145 87
-243 204 -280 181 -57 364 69 381 262 5 57 -15 182 -38 240 -32 78 -45 103
-87 168 -146 227 -437 383 -751 402 l-105 6 69 65 c39 35 120 106 182 158 210
176 425 467 592 799 83 166 82 164 141 320 78 208 96 331 65 448 -34 131 -119
206 -269 237 -54 11 -202 18 -261 13z m-5 -289 c83 -26 125 -61 135 -110 8
-44 -14 -154 -31 -161 -8 -3 -14 -11 -14 -18 0 -8 -13 -26 -28 -42 -33 -32
-104 -54 -172 -52 -40 1 -70 -5 -215 -43 -78 -20 -180 -77 -247 -138 -74 -67
-88 -97 -88 -192 0 -49 3 -59 26 -77 15 -12 34 -21 43 -21 26 0 173 95 214
139 42 45 152 111 184 111 52 0 50 -55 -3 -130 -13 -19 -33 -49 -44 -66 -15
-22 -37 -38 -79 -53 -33 -12 -135 -60 -228 -106 -139 -71 -176 -94 -215 -137
-39 -42 -48 -58 -48 -87 1 -20 9 -46 19 -58 17 -21 22 -21 85 -11 36 6 69 8
73 5 20 -21 -97 -84 -173 -93 -41 -5 -55 -2 -84 18 l-35 24 2 85 c1 83 15 161
47 269 10 30 28 98 42 150 35 133 84 277 136 400 25 58 52 126 62 152 26 70
93 130 211 188 168 83 287 98 425 54z"/>
<path d="M13196 12420 c-35 -11 -69 -41 -106 -95 -26 -38 -31 -40 -69 -37 -27
3 -50 -2 -66 -12 -24 -16 -27 -15 -55 6 -20 15 -49 23 -88 26 -66 5 -114 -14
-177 -70 -46 -40 -46 -85 0 -107 44 -22 133 -20 174 4 55 32 51 45 -16 46 -32
1 -69 4 -82 8 -23 6 -23 7 16 34 45 31 100 36 143 11 24 -15 28 -24 33 -82 4
-36 14 -76 23 -89 15 -23 19 -24 77 -18 101 12 137 39 137 104 0 30 1 31 48
31 62 1 118 27 164 78 54 60 62 117 22 156 -17 18 -126 21 -178 6z m124 -73
c0 -17 -36 -50 -77 -71 -36 -18 -108 -22 -118 -6 -4 6 11 29 33 50 38 38 43
40 101 40 44 0 61 -4 61 -13z"/>
<path d="M14768 11323 c-23 -27 -26 -50 -43 -303 -8 -127 -24 -331 -35 -453
-27 -297 -27 -327 -4 -344 45 -33 88 8 104 97 17 101 41 430 51 709 9 275 9
276 -12 294 -12 9 -27 17 -34 17 -6 0 -19 -8 -27 -17z"/>
<path d="M15200 11276 c-5 -13 -18 -124 -29 -245 -12 -121 -32 -314 -46 -428
-27 -225 -31 -314 -15 -344 13 -23 52 -25 70 -4 37 45 119 970 91 1023 -16 31
-59 30 -71 -2z"/>
<path d="M12980 11222 c-19 -16 -23 -34 -35 -189 -23 -280 -57 -427 -124 -539
-53 -87 -82 -165 -89 -233 -4 -45 -2 -57 14 -68 28 -21 61 -15 84 14 28 36 85
154 119 251 24 64 35 82 68 105 23 16 55 29 74 30 29 2 36 -3 51 -33 22 -43
23 -111 4 -149 -22 -43 -81 -89 -128 -101 -62 -17 -73 -24 -76 -51 -8 -66 81
-90 172 -45 65 32 110 80 144 154 52 114 9 277 -85 323 -39 19 -51 20 -96 11
-29 -6 -53 -9 -55 -8 -1 2 5 45 14 97 10 58 17 156 18 257 1 151 0 165 -18
178 -25 18 -29 18 -56 -4z"/>
<path d="M12068 10938 c-22 -24 -61 -87 -86 -140 l-47 -97 -93 -22 c-99 -23
-122 -37 -122 -73 0 -53 36 -68 121 -53 l35 7 -28 -85 c-66 -198 -42 -298 79
-325 79 -18 190 32 196 89 3 38 -29 49 -102 37 -42 -7 -64 -7 -72 1 -14 14 6
117 44 227 l32 89 75 18 c90 23 124 45 128 86 5 47 -18 59 -89 47 -32 -6 -59
-9 -59 -8 0 12 39 88 66 128 40 59 41 69 14 96 -29 29 -49 25 -92 -22z"/>
<path d="M8705 10716 c-18 -13 -20 -32 -25 -207 l-5 -194 -48 -101 c-50 -106
-57 -143 -31 -168 26 -26 60 -19 87 17 23 31 69 135 82 187 16 59 113 210 135
210 5 0 11 -29 15 -64 7 -67 -6 -157 -32 -212 -20 -40 -10 -81 21 -95 36 -17
61 3 96 76 59 124 181 265 228 265 17 0 29 -64 35 -181 7 -129 23 -172 71
-196 30 -14 42 -14 74 -5 51 15 92 57 92 92 0 37 -22 53 -65 48 -19 -2 -35 -4
-35 -3 0 0 -5 54 -10 119 -13 178 -58 250 -153 249 -56 -1 -95 -22 -160 -84
-28 -27 -52 -49 -54 -49 -2 0 -3 13 -3 28 0 15 -10 48 -22 72 -38 74 -96 79
-168 14 l-40 -36 0 96 c0 83 -3 99 -20 116 -24 24 -39 25 -65 6z"/>
<path d="M13845 10658 c-58 -31 -148 -127 -181 -194 -35 -72 -45 -174 -20
-221 22 -43 76 -66 141 -61 64 5 123 35 196 98 l56 49 13 -39 c7 -21 25 -50
39 -64 58 -54 151 -27 151 45 0 25 -6 32 -34 44 -32 13 -34 18 -40 72 -4 32
-2 82 3 111 13 63 2 99 -33 108 -37 9 -63 -11 -83 -66 -13 -33 -40 -72 -79
-112 -84 -86 -139 -121 -188 -122 -41 -1 -41 -1 -38 34 5 57 48 134 106 189
52 48 58 51 108 51 59 0 78 12 78 46 0 55 -116 73 -195 32z"/>
<path d="M10060 10641 c-94 -20 -190 -106 -242 -217 -36 -78 -43 -177 -16
-229 38 -70 106 -112 206 -124 124 -16 243 18 302 85 30 35 36 58 21 82 -13
21 -41 18 -116 -13 -123 -51 -273 -36 -304 31 -18 40 -15 57 8 44 31 -16 134
-12 200 9 107 33 191 125 191 209 0 83 -132 148 -250 123z m124 -107 c27 -10
18 -41 -21 -74 -45 -36 -118 -60 -185 -60 l-49 0 15 28 c16 29 69 83 101 100
22 12 113 16 139 6z"/>
<path d="M10990 10586 c-122 -43 -268 -209 -285 -323 -13 -83 54 -146 154
-146 69 0 133 29 199 88 l47 43 21 -42 c11 -22 35 -51 54 -63 70 -48 179 -16
180 53 0 29 -18 42 -65 46 -30 2 -43 9 -53 28 -18 36 -10 143 17 214 20 53 21
60 7 81 -19 29 -49 39 -74 26 -11 -6 -24 -6 -33 0 -21 13 -128 10 -169 -5z
m125 -121 c-17 -55 -63 -113 -129 -164 -67 -51 -88 -61 -126 -61 -30 0 -32 2
-26 28 10 39 73 127 119 167 50 43 114 75 149 75 l26 0 -13 -45z"/>
<path d="M10100 8954 c0 -93 1 -95 23 -92 20 3 22 9 27 90 5 81 4 87 -15 92
-11 3 -23 6 -27 6 -5 0 -8 -43 -8 -96z"/>
<path d="M10238 9013 c-2 -21 -1 -62 0 -90 3 -44 7 -53 23 -53 16 0 19 8 20
48 0 26 1 63 3 82 3 60 -41 72 -46 13z"/>
<path d="M8973 9005 c14 -22 30 -34 45 -35 33 0 27 27 -10 50 -49 30 -60 25
-35 -15z"/>
<path d="M6687 8958 c-13 -180 -60 -279 -171 -360 -21 -15 -32 -28 -24 -28 19
0 82 42 127 83 38 37 91 139 91 179 0 15 5 30 10 33 6 3 10 -2 10 -12 0 -45
57 -159 106 -212 l51 -55 33 14 34 14 -30 12 c-41 17 -95 79 -127 145 -28 57
-62 212 -51 230 8 13 -13 29 -37 29 -14 0 -18 -14 -22 -72z"/>
<path d="M7840 8955 c-1 -41 -2 -142 -3 -225 l-2 -150 25 0 25 0 -1 214 c-1
118 -5 219 -8 225 -4 6 -14 11 -22 11 -11 0 -14 -17 -14 -75z"/>
<path d="M9951 8988 c12 -18 24 -35 25 -36 5 -7 44 10 44 19 0 11 -60 49 -78
49 -9 0 -6 -10 9 -32z"/>
<path d="M11410 9000 c-41 -41 -112 -90 -130 -90 -18 0 -20 -10 -22 -147 l-3
-148 -35 3 -35 4 30 -27 c27 -26 31 -27 55 -14 25 15 25 16 28 156 l3 142 37
31 c20 17 61 42 90 57 42 20 50 28 41 39 -16 20 -36 17 -59 -6z"/>
<path d="M10326 8985 c-19 -14 -18 -15 17 -15 38 0 49 13 21 24 -19 7 -15 8
-38 -9z"/>
<path d="M11068 8993 c7 -3 16 -2 19 1 4 3 -2 6 -13 5 -11 0 -14 -3 -6 -6z"/>
<path d="M7714 8943 c-9 -21 -32 -71 -50 -112 -34 -73 -37 -99 -9 -70 8 8 37
54 64 103 38 68 48 93 39 103 -17 21 -26 16 -44 -24z"/>
<path d="M9166 8965 c-4 -12 3 -15 31 -15 30 0 34 2 23 15 -7 8 -20 15 -30 15
-10 0 -20 -7 -24 -15z"/>
<path d="M12183 8958 c-23 -11 -31 -28 -13 -28 6 0 10 -58 10 -154 l0 -153 31
-7 c17 -3 43 -6 58 -6 25 0 24 1 -9 18 l-35 17 -3 78 c-3 75 -2 77 23 87 55
21 110 -28 110 -97 0 -37 -5 -49 -28 -69 -23 -20 -25 -24 -10 -24 73 0 110
134 52 186 -16 15 -36 19 -85 19 l-64 0 0 72 c0 76 -1 78 -37 61z"/>
<path d="M8913 8895 c-23 -29 -56 -59 -72 -66 -38 -17 -30 -29 20 -29 l39 0 0
-52 c0 -67 -22 -104 -86 -146 -53 -36 -42 -42 21 -12 70 34 96 69 108 149 11
68 12 71 39 71 l28 0 0 -97 c0 -54 4 -105 9 -112 13 -20 128 -27 176 -11 38
13 39 19 19 93 -10 34 -34 19 -34 -22 0 -49 -17 -63 -72 -59 l-43 3 -3 99 c-2
73 1 102 10 108 7 4 -34 8 -92 8 l-105 1 25 20 c84 70 92 80 80 94 -7 8 -15
15 -19 14 -3 0 -25 -24 -48 -54z"/>
<path d="M10006 8895 l-18 -45 -32 25 c-33 25 -56 32 -56 17 0 -12 57 -72 69
-72 5 0 2 -18 -6 -40 -14 -34 -20 -40 -47 -41 -28 0 -29 -1 -9 -9 34 -14 46
-44 33 -88 -15 -54 -13 -62 15 -62 24 0 25 2 25 76 0 58 7 97 30 166 17 49 30
96 30 104 0 29 -18 13 -34 -31z"/>
<path d="M7995 8890 c-18 -20 -17 -20 23 -20 43 0 51 7 30 28 -17 17 -32 15
-53 -8z"/>
<path d="M9050 8892 c0 -5 12 -20 28 -34 15 -14 37 -38 48 -54 18 -24 24 -27
35 -16 18 17 5 37 -50 80 -43 32 -61 39 -61 24z"/>
<path d="M10169 8853 c0 -21 0 -60 1 -88 l1 -50 -31 38 c-33 39 -59 51 -38 18
10 -16 9 -26 -5 -53 l-17 -33 2 69 c1 61 -1 71 -20 84 l-22 14 0 -141 c0 -134
1 -141 20 -141 16 0 20 7 20 33 0 27 9 48 36 85 1 2 14 -8 28 -21 20 -19 26
-34 26 -66 0 -34 3 -41 20 -41 17 0 20 7 20 43 0 34 6 49 26 68 23 22 26 23
35 6 6 -9 17 -17 24 -17 10 0 15 -10 15 -30 0 -23 -4 -30 -20 -30 -27 0 -25
-14 5 -30 41 -22 49 -3 55 131 4 104 3 123 -12 136 -27 24 -37 7 -31 -57 6
-67 -2 -75 -35 -30 -28 38 -43 38 -36 2 4 -19 0 -32 -11 -42 -15 -13 -16 -9
-15 46 3 123 2 134 -20 134 -16 0 -20 -7 -21 -37z"/>
<path d="M13069 8823 c-4 -37 4 -145 12 -171 13 -38 45 -50 101 -35 21 6 38 6
38 2 0 -12 47 -11 55 0 3 5 1 12 -5 16 -6 3 -10 47 -10 101 0 69 -3 94 -12 93
-19 -1 -55 -17 -40 -18 8 -1 12 -23 12 -77 0 -82 -11 -103 -55 -104 -37 0 -45
20 -45 112 0 87 0 88 -25 88 -14 0 -25 -3 -26 -7z"/>
<path d="M13977 8819 c-23 -13 -50 -66 -41 -82 4 -7 16 -22 27 -34 19 -21 19
-22 -2 -35 -25 -15 -27 -36 -6 -44 22 -9 18 -23 -10 -46 -45 -35 -29 -65 45
-84 48 -12 56 -12 100 7 88 38 91 112 6 124 -25 4 -49 4 -55 0 -21 -12 -52 6
-49 28 2 17 13 23 48 30 70 13 99 56 76 110 -6 13 -3 17 12 17 12 0 23 4 26 8
7 12 -155 13 -177 1z m81 -12 c21 -25 25 -66 8 -92 -32 -49 -75 -20 -76 51 0
22 3 44 7 47 11 12 50 8 61 -6z m44 -214 c26 -23 22 -48 -9 -73 -45 -35 -123
-12 -123 37 0 45 93 71 132 36z"/>
<path d="M7975 8760 c-18 -20 -17 -20 24 -20 43 0 47 11 12 30 -14 7 -23 5
-36 -10z"/>
<path d="M7688 8743 c7 -3 16 -2 19 1 4 3 -2 6 -13 5 -11 0 -14 -3 -6 -6z"/>
<path d="M5670 8710 c0 -6 30 -10 70 -10 40 0 70 4 70 10 0 6 -30 10 -70 10
-40 0 -70 -4 -70 -10z"/>
<path d="M14800 8710 c0 -6 30 -10 70 -10 40 0 70 4 70 10 0 6 -30 10 -70 10
-40 0 -70 -4 -70 -10z"/>
<path d="M8026 8604 c-9 -24 -9 -24 29 -24 39 0 43 6 18 26 -24 18 -40 17 -47
-2z"/>
</g>
</svg>
