<?xml version="1.0" standalone="no"?>
<!DOCTYPE svg PUBLIC "-//W3C//DTD SVG 20010904//EN"
 "http://www.w3.org/TR/2001/REC-SVG-20010904/DTD/svg10.dtd">
<svg version="1.0" xmlns="http://www.w3.org/2000/svg"
 width="3840.000000pt" height="2160.000000pt" viewBox="0 0 3840.000000 2160.000000"
 preserveAspectRatio="xMidYMid meet">

<g transform="translate(0.000000,2160.000000) scale(0.100000,-0.100000)"
fill="#000000" stroke="none">
<path d="M10973 8534 c-48 -24 -62 -95 -23 -119 7 -5 -3 -14 -27 -25 -49 -22
-66 -43 -66 -82 0 -35 40 -78 73 -78 10 0 56 16 101 35 46 20 103 38 128 41
98 12 131 33 131 83 0 26 -34 57 -70 65 -19 3 -35 16 -45 35 -8 17 -29 37 -45
46 -38 19 -116 19 -157 -1z"/>
<path d="M11608 8525 c-9 -19 -8 -59 2 -166 10 -109 10 -143 1 -148 -7 -4 -48
-16 -92 -25 -61 -13 -83 -22 -95 -41 -21 -33 -14 -74 18 -98 25 -18 31 -19
108 -7 44 7 82 11 84 9 2 -2 6 -143 8 -314 5 -321 9 -354 48 -375 77 -41 106
76 96 390 -4 102 -9 217 -13 256 l-6 72 34 6 c139 27 179 50 179 104 0 54 -27
66 -134 58 -109 -7 -95 -25 -121 149 -20 128 -33 155 -75 155 -23 0 -33 -6
-42 -25z"/>
<path d="M9852 8435 c-56 -17 -101 -52 -157 -124 -31 -39 -55 -61 -74 -64 -20
-4 -32 -16 -41 -38 -13 -30 -12 -36 19 -92 30 -53 33 -65 27 -110 -4 -28 -14
-63 -22 -78 -21 -42 -18 -85 8 -103 28 -20 51 -20 88 -1 66 34 98 177 66 290
l-18 58 61 61 61 60 69 4 c69 4 69 4 85 -26 22 -43 20 -123 -5 -202 -31 -95
-12 -150 51 -150 64 0 120 120 121 260 1 128 -42 213 -125 251 -49 22 -150 24
-214 4z"/>
<path d="M7984 8375 c-26 -26 -26 -28 -23 -143 l4 -116 -71 -12 c-86 -15 -219
-51 -256 -70 -51 -26 -48 -107 4 -131 21 -11 43 -9 134 11 60 13 136 27 170
31 l61 7 23 -89 c29 -110 81 -241 125 -313 35 -58 119 -147 170 -180 94 -62
221 -11 218 87 -2 52 -18 66 -74 58 -46 -6 -47 -6 -96 43 -55 55 -106 145
-158 280 -52 134 -55 128 70 134 133 7 170 25 170 82 0 31 -6 43 -28 60 -25
19 -45 21 -168 24 -76 2 -139 5 -139 6 0 39 -34 224 -43 233 -7 6 -24 15 -39
18 -21 5 -33 1 -54 -20z"/>
<path d="M8220 8380 c-31 -31 -26 -80 13 -118 60 -58 130 -63 157 -12 16 31 5
64 -36 110 -31 34 -43 40 -75 40 -26 0 -46 -7 -59 -20z"/>
<path d="M9072 8384 c-45 -31 -17 -98 50 -120 17 -5 8 -13 -50 -40 -85 -39
-105 -67 -78 -110 21 -31 27 -31 231 15 142 31 188 52 193 88 6 37 -33 58
-109 58 -65 0 -69 1 -69 23 0 28 -39 68 -85 88 -44 18 -55 18 -83 -2z"/>
<path d="M6106 8291 c-44 -44 -110 -101 -146 -128 -72 -54 -85 -82 -48 -107
33 -23 66 -20 123 13 89 51 215 201 215 255 0 19 -27 46 -47 46 -8 0 -52 -36
-97 -79z"/>
<path d="M6779 8217 c-52 -20 -96 -54 -130 -100 -26 -36 -29 -48 -29 -114 0
-58 -3 -73 -15 -73 -20 0 -19 -16 5 -67 17 -38 23 -43 53 -43 51 0 71 28 63
84 -8 53 1 75 52 129 59 61 132 44 132 -30 0 -23 -11 -40 -45 -71 -51 -47 -59
-86 -24 -118 50 -45 158 -3 207 81 19 34 22 52 20 116 -3 63 -8 82 -31 117
-40 61 -94 93 -164 98 -35 3 -72 -1 -94 -9z"/>
<path d="M11068 8139 c-44 -23 -62 -52 -54 -85 8 -31 45 -40 100 -24 68 19
106 46 106 74 0 54 -82 73 -152 35z"/>
<path d="M6125 8073 c-4 -10 -12 -60 -19 -111 l-11 -93 -73 -29 c-41 -16 -82
-36 -93 -46 -43 -39 -8 -104 56 -104 40 0 42 -3 16 -38 -29 -42 -52 -103 -45
-124 14 -46 84 -42 106 7 6 14 14 25 18 25 4 0 10 -60 13 -132 4 -73 12 -153
18 -178 19 -81 75 -114 119 -70 11 11 20 30 21 43 2 47 -2 177 -11 307 -6 74
-10 158 -10 186 l0 51 43 13 c91 27 167 77 167 111 0 23 -37 49 -70 49 -14 0
-52 -7 -85 -15 -42 -11 -60 -13 -65 -4 -4 6 -10 42 -13 80 -3 38 -9 74 -12 79
-11 17 -62 12 -70 -7z"/>
<path d="M9157 8030 c-42 -13 -57 -29 -57 -61 0 -37 29 -52 83 -44 60 9 96 25
102 45 17 54 -48 84 -128 60z"/>
<path d="M11052 7950 c-71 -33 -93 -64 -74 -105 20 -44 56 -43 151 6 72 37 87
48 89 71 4 32 -29 58 -73 58 -16 0 -58 -13 -93 -30z"/>
<path d="M9160 7892 c-38 -19 -50 -54 -30 -92 26 -49 170 1 170 59 0 6 -9 20
-20 31 -25 25 -73 26 -120 2z"/>
<path d="M11095 7811 c-85 -21 -160 -84 -177 -147 -20 -79 -19 -89 11 -168 31
-81 42 -96 73 -96 47 0 62 73 32 150 -30 75 14 110 140 110 l57 0 -26 -43
c-40 -69 -30 -107 27 -107 86 0 171 107 151 190 -20 85 -75 120 -188 119 -38
-1 -83 -4 -100 -8z"/>
<path d="M9875 7766 c-70 -22 -119 -53 -166 -103 -40 -42 -47 -57 -53 -104 -9
-71 -4 -82 50 -110 24 -13 43 -27 42 -31 -2 -4 -27 -24 -57 -45 -67 -47 -95
-83 -87 -111 9 -28 58 -46 107 -38 47 8 143 54 185 90 l30 24 59 -20 c112 -38
227 -22 233 33 4 34 -19 52 -103 79 -38 13 -71 24 -73 25 -2 2 18 32 44 67 57
77 74 115 74 168 0 30 -7 47 -25 65 -22 23 -31 25 -122 24 -54 0 -116 -6 -138
-13z m85 -143 c0 -5 -18 -28 -39 -53 l-39 -44 -41 19 c-49 21 -45 27 35 60 61
26 84 30 84 18z"/>
<path d="M7780 7741 c-177 -38 -190 -45 -190 -110 0 -20 8 -36 27 -51 28 -22
53 -22 121 -4 20 6 22 3 22 -33 0 -40 14 -67 40 -75 8 -2 -30 -21 -83 -42 -55
-21 -101 -46 -107 -56 -17 -32 -11 -70 16 -97 32 -32 52 -29 188 23 115 44
166 85 166 132 0 45 -34 66 -95 56 -45 -6 -47 -6 -36 14 6 11 11 36 11 54 0
41 6 49 52 70 51 24 74 61 60 94 -12 26 -49 44 -85 43 -12 0 -60 -9 -107 -18z"/>
<path d="M6786 7689 c-87 -5 -101 -8 -118 -28 -44 -55 1 -129 69 -116 46 8 42
-7 -17 -57 -32 -28 -50 -51 -50 -65 0 -24 32 -63 51 -63 6 0 9 -12 7 -27 -3
-26 -9 -29 -85 -46 -76 -17 -83 -20 -83 -43 0 -14 -7 -27 -15 -30 -24 -9 -18
-52 9 -69 22 -15 37 -15 167 0 238 26 367 59 417 105 28 27 28 36 -5 57 -29
19 -118 23 -230 9 -57 -6 -63 -5 -63 11 0 12 19 27 60 45 75 34 97 70 61 99
-13 11 -32 19 -42 19 -14 0 -19 7 -19 30 0 24 6 33 27 41 42 16 63 39 63 69 0
57 -41 69 -204 59z"/>
<path d="M6287 7672 c-36 -39 -11 -89 59 -118 47 -20 69 -18 101 10 24 21 26
27 16 48 -14 32 -92 78 -131 78 -16 0 -36 -8 -45 -18z"/>
<path d="M9146 7664 c-36 -12 -63 -30 -103 -71 -60 -63 -64 -82 -38 -171 17
-56 42 -77 80 -68 33 8 39 36 21 95 l-15 51 29 20 c41 29 141 47 175 32 33
-15 47 -51 35 -93 -11 -36 2 -69 26 -69 42 0 80 36 98 94 17 52 -46 155 -111
182 -42 18 -135 17 -197 -2z"/>
</g>
</svg>
