<?xml version="1.0" standalone="no"?>
<!DOCTYPE svg PUBLIC "-//W3C//DTD SVG 20010904//EN"
 "http://www.w3.org/TR/2001/REC-SVG-20010904/DTD/svg10.dtd">
<svg version="1.0" xmlns="http://www.w3.org/2000/svg"
 width="3177.000000pt" height="1017.000000pt" viewBox="0 0 3177.000000 1017.000000"
 preserveAspectRatio="xMidYMid meet">

<g transform="translate(0.000000,1017.000000) scale(0.100000,-0.100000)"
fill="#000000" stroke="none">
<path d="M18984 7862 c-55 -26 -95 -76 -189 -236 -44 -75 -105 -176 -136 -224
-185 -284 -829 -956 -1236 -1288 -220 -180 -293 -275 -293 -382 0 -49 3 -58
38 -92 75 -75 225 -80 365 -12 209 101 560 408 1003 880 291 309 385 439 545
757 179 356 203 443 145 519 -64 84 -161 115 -242 78z"/>
<path d="M19358 7406 c-57 -15 -89 -36 -122 -79 -63 -83 -86 -190 -53 -254 61
-117 339 -211 832 -282 336 -49 652 -54 807 -13 197 53 259 128 228 277 -31
148 -133 188 -635 250 -211 26 -426 58 -630 95 -128 23 -353 26 -427 6z"/>
<path d="M24656 7279 c-139 -11 -256 -48 -431 -133 -441 -216 -778 -545 -801
-782 -5 -49 -2 -66 18 -104 35 -68 79 -93 154 -88 79 5 135 38 298 176 255
218 530 373 738 418 163 35 630 28 783 -11 202 -53 493 -279 638 -496 164
-247 188 -371 191 -979 1 -413 5 -387 -109 -838 -41 -163 -84 -350 -95 -415
-22 -132 -26 -286 -9 -338 41 -122 205 -147 341 -52 156 107 308 461 377 878
80 487 74 1081 -15 1484 -75 335 -206 583 -424 802 -130 131 -232 209 -402
310 -152 91 -226 124 -323 144 -140 29 -694 43 -929 24z"/>
<path d="M22991 6449 c-62 -25 -79 -47 -95 -122 -65 -305 -74 -1672 -16 -2377
39 -467 186 -1205 300 -1504 49 -131 67 -195 80 -284 19 -134 41 -153 265
-225 783 -253 1428 -248 1717 12 89 80 133 169 91 186 -26 10 -302 24 -478 25
-253 1 -622 36 -893 86 -218 40 -228 48 -243 200 -6 53 -26 158 -46 233 -87
331 -129 537 -182 904 -102 691 -163 1452 -181 2257 -7 310 -12 408 -25 455
-32 120 -88 165 -201 164 -38 0 -80 -5 -93 -10z"/>
<path d="M19255 6396 c-287 -76 -538 -209 -701 -371 -91 -90 -123 -148 -131
-233 -7 -74 19 -137 73 -178 35 -27 44 -29 123 -29 96 0 111 6 276 107 50 30
178 101 285 158 232 122 351 198 379 244 44 70 46 188 4 245 -10 14 -40 36
-65 49 -68 34 -136 37 -243 8z"/>
<path d="M24540 6203 c-198 -24 -370 -122 -421 -239 -27 -60 -34 -136 -20
-206 22 -103 87 -168 168 -168 57 0 89 18 137 75 55 66 89 79 221 79 106 0
148 -9 166 -37 12 -17 -10 -70 -42 -103 -54 -56 -133 -84 -266 -94 -141 -12
-166 -17 -215 -41 -95 -49 -88 -137 23 -286 l32 -42 -36 -40 c-41 -46 -70
-129 -87 -250 -12 -85 -8 -130 17 -197 12 -33 12 -46 3 -64 -12 -22 -106 -86
-296 -200 -130 -79 -227 -168 -243 -225 -22 -78 -9 -172 32 -229 24 -33 89
-65 134 -66 41 0 289 124 534 268 343 202 666 367 979 502 213 91 398 188 417
217 20 30 10 67 -27 95 -86 64 -452 64 -721 -1 -113 -26 -209 -62 -357 -132
-91 -43 -122 -54 -117 -41 11 29 33 134 40 192 3 30 9 63 11 72 6 21 50 35
139 42 227 18 463 275 536 582 28 119 24 275 -9 348 -32 71 -88 140 -136 167
-40 23 -47 24 -301 25 -143 1 -276 0 -295 -3z"/>
<path d="M19810 5623 c-348 -34 -521 -80 -789 -209 -423 -204 -714 -500 -825
-840 -47 -142 -60 -236 -47 -339 14 -105 66 -269 112 -350 41 -73 129 -168
175 -190 80 -38 160 -27 222 30 l37 34 -1 83 c-1 68 -8 105 -42 208 -22 69
-43 139 -47 156 -19 98 103 334 249 479 110 109 325 265 365 265 12 0 13 -26
8 -157 -7 -157 -17 -233 -38 -285 -9 -21 -22 -30 -53 -38 -115 -29 -186 -114
-186 -225 0 -75 43 -132 143 -189 27 -15 47 -33 45 -39 -2 -7 -69 -46 -149
-87 -247 -127 -319 -200 -319 -321 0 -83 40 -143 139 -212 85 -58 146 -50 469
67 428 155 761 279 817 306 241 115 570 379 684 549 240 355 220 863 -44 1126
-115 115 -210 153 -440 175 -101 9 -402 11 -485 3z m400 -473 c182 -24 252
-106 251 -295 0 -118 -28 -221 -96 -360 -62 -129 -103 -188 -148 -215 -27 -17
-50 -20 -150 -20 l-118 0 8 78 c23 219 1 312 -84 353 -39 19 -55 21 -121 15
-43 -3 -83 -2 -91 3 -10 6 -16 39 -21 103 -9 116 -27 159 -79 194 -23 15 -41
30 -41 35 0 31 131 69 320 93 212 27 264 29 370 16z"/>
<path d="M15190 5020 c-87 -45 -262 -270 -368 -470 -152 -288 -191 -524 -111
-681 26 -52 93 -106 161 -131 32 -11 61 -25 64 -29 8 -13 -9 -39 -86 -130
-151 -177 -220 -328 -220 -479 0 -89 21 -158 65 -216 82 -108 349 -150 575
-91 223 58 716 291 1130 533 69 40 149 82 177 93 l53 21 14 -23 c14 -21 24
-53 62 -186 44 -157 167 -269 294 -270 96 0 182 55 227 147 23 48 28 72 31
157 7 169 -44 334 -153 502 -137 210 -269 278 -467 239 -133 -26 -250 -79
-563 -256 -365 -207 -767 -411 -781 -397 -6 5 147 211 309 416 180 227 279
367 324 458 33 67 38 86 38 147 0 55 -5 77 -20 99 -40 56 -151 90 -228 69 -20
-6 -58 -28 -84 -50 -60 -50 -226 -143 -317 -177 -60 -22 -71 -24 -83 -12 -22
22 -3 77 105 302 114 238 121 272 73 348 -17 26 -45 56 -63 67 -42 25 -111 25
-158 0z"/>
<path d="M25065 4279 c-181 -25 -369 -87 -479 -159 -92 -60 -161 -128 -313
-310 -67 -80 -158 -185 -202 -235 -47 -52 -95 -118 -114 -155 -31 -62 -32 -69
-30 -175 2 -119 34 -297 72 -396 45 -119 122 -198 207 -214 19 -3 60 -1 91 6
51 12 57 11 69 -6 8 -10 14 -42 14 -69 0 -126 98 -180 350 -192 208 -10 306
18 417 119 102 93 141 188 95 230 -32 30 -106 37 -455 49 -339 11 -348 12
-352 32 -17 74 -87 526 -92 596 -9 133 17 166 228 291 286 168 501 240 588
195 64 -33 91 -142 91 -371 1 -214 15 -394 35 -443 23 -56 55 -72 142 -72 208
1 281 163 270 600 -9 332 -65 491 -211 601 -92 70 -258 100 -421 78z"/>
<path d="M19579 3401 c-47 -10 -101 -26 -120 -36 -68 -35 -158 -106 -218 -172
-113 -126 -160 -249 -181 -475 -16 -165 -9 -977 9 -1031 6 -20 39 -67 72 -105
33 -37 62 -78 65 -92 12 -52 28 -81 65 -114 67 -61 115 -80 200 -81 72 0 82 3
182 52 173 87 323 208 401 325 47 71 82 101 163 139 110 53 205 192 271 399
100 313 76 631 -63 840 -84 126 -283 290 -412 341 -82 32 -309 37 -434 10z
m222 -473 c24 -13 82 -54 128 -92 l84 -70 -124 -41 c-124 -41 -205 -77 -267
-116 -27 -17 -38 -19 -56 -11 -31 14 -55 68 -62 139 -7 69 7 105 58 148 78 66
163 81 239 43z m173 -749 c-15 -138 -22 -165 -51 -191 -10 -10 -87 -33 -173
-54 -222 -52 -217 -52 -231 -18 -16 42 18 101 92 159 50 40 370 237 375 232 2
-1 -4 -59 -12 -128z"/>
<path d="M24638 3405 c-94 -30 -128 -93 -128 -236 0 -63 5 -93 20 -125 30 -62
70 -78 200 -82 95 -3 109 -1 149 20 64 34 91 89 91 182 0 81 -20 135 -68 182
-64 64 -172 88 -264 59z"/>
<path d="M16432 2749 c-74 -10 -144 -47 -242 -129 -47 -39 -105 -83 -130 -98
-42 -26 -51 -27 -155 -24 -131 3 -183 -9 -223 -52 -56 -59 -66 -139 -33 -269
51 -199 141 -297 272 -297 96 0 166 56 195 157 14 49 15 70 5 150 -12 103 -4
143 28 143 67 0 377 -126 514 -208 175 -106 263 -109 358 -11 135 138 96 341
-94 485 -144 109 -351 173 -495 153z"/>
<path d="M15075 2367 c-62 -20 -92 -45 -114 -90 -55 -115 -55 -471 -1 -594 24
-54 94 -129 144 -155 57 -29 150 -22 200 15 74 57 113 162 122 337 7 113 -6
243 -31 328 -19 64 -66 119 -122 144 -55 24 -148 31 -198 15z"/>
<path d="M14620 151 c0 -16 39 -23 103 -19 88 5 74 23 -20 26 -52 2 -83 -1
-83 -7z"/>
</g>
</svg>
