<?xml version="1.0" standalone="no"?>
<!DOCTYPE svg PUBLIC "-//W3C//DTD SVG 20010904//EN"
 "http://www.w3.org/TR/2001/REC-SVG-20010904/DTD/svg10.dtd">
<svg version="1.0" xmlns="http://www.w3.org/2000/svg"
 width="3177.000000pt" height="1018.000000pt" viewBox="0 0 3177.000000 1018.000000"
 preserveAspectRatio="xMidYMid meet">

<g transform="translate(0.000000,1018.000000) scale(0.100000,-0.100000)"
fill="#000000" stroke="none">
<path d="M15416 9496 c-53 -20 -120 -88 -147 -150 -27 -62 -36 -182 -19 -245
22 -82 134 -167 435 -331 206 -113 343 -195 385 -234 40 -35 45 -29 -130 -134
-169 -101 -261 -175 -421 -338 -326 -334 -556 -708 -519 -844 13 -48 71 -121
123 -156 57 -38 146 -45 203 -16 68 35 142 110 282 287 229 288 362 405 597
525 470 239 1099 327 1514 210 190 -54 370 -180 425 -299 27 -60 28 -181 2
-417 -22 -208 -20 -332 8 -363 35 -38 122 -64 203 -59 188 12 353 170 414 399
40 150 37 427 -8 594 -63 236 -256 460 -543 629 -264 156 -476 195 -1010 183
-314 -7 -466 -20 -575 -49 -44 -11 -90 -23 -101 -25 -21 -5 -22 -1 -26 119 -4
108 -7 130 -32 186 -56 123 -190 223 -511 382 -279 139 -448 183 -549 146z"/>
<path d="M22993 7956 c-65 -21 -107 -51 -177 -129 l-64 -72 49 -175 c92 -322
115 -535 106 -973 -4 -185 -11 -311 -21 -367 -34 -188 -8 -288 88 -331 71 -32
201 -18 279 30 43 26 119 107 182 194 32 44 52 64 59 57 6 -6 12 -107 14 -240
4 -204 0 -514 -24 -1811 l-7 -345 34 -21 c19 -11 61 -37 93 -57 69 -42 93 -44
152 -14 81 40 150 112 194 201 54 110 82 232 125 537 20 140 38 264 40 276 4
17 35 32 157 79 264 99 441 203 564 331 78 82 109 145 108 224 -1 155 -106
224 -305 199 -98 -12 -204 -43 -378 -109 -74 -27 -136 -48 -139 -45 -3 3 -6
61 -6 128 -1 139 6 160 74 221 59 53 275 193 401 260 58 30 158 76 223 100
135 52 192 83 252 138 76 70 105 178 70 262 -19 46 -82 114 -127 137 -61 31
-175 43 -277 30 -177 -22 -298 -64 -541 -186 -145 -72 -151 -74 -156 -52 -14
59 -45 277 -45 312 0 58 37 124 92 165 26 19 104 66 175 104 363 197 549 341
618 480 32 64 34 149 5 207 -28 55 -95 117 -155 145 -125 59 -229 23 -753
-260 -338 -183 -447 -233 -467 -216 -20 16 -59 103 -96 207 -53 152 -123 286
-173 330 -69 61 -151 77 -243 49z"/>
<path d="M14617 7547 c-89 -29 -141 -104 -212 -308 -93 -266 -147 -538 -148
-739 -1 -222 40 -330 143 -383 49 -25 63 -28 137 -25 74 3 85 6 120 34 75 62
102 145 138 439 30 242 54 379 100 567 50 204 46 256 -31 347 -54 64 -165 95
-247 68z"/>
<path d="M21953 7457 c-49 -18 -140 -87 -169 -129 -36 -52 -51 -110 -80 -307
-44 -310 -93 -487 -179 -648 -25 -47 -126 -207 -224 -357 -247 -373 -290 -464
-262 -549 37 -112 215 -158 383 -97 32 11 71 20 86 20 27 0 30 -4 36 -42 4
-24 11 -353 16 -733 9 -682 15 -795 46 -887 54 -163 276 -182 411 -35 56 61
83 116 99 206 19 109 37 705 31 1061 -5 353 -11 398 -106 775 l-59 237 60 131
c125 273 176 482 227 917 16 140 29 255 28 256 -84 72 -202 161 -232 175 -46
21 -67 22 -112 6z"/>
<path d="M17085 7029 c-252 -34 -439 -133 -495 -261 -16 -37 -23 -74 -24 -120
-1 -58 2 -70 24 -93 48 -51 104 -68 280 -85 355 -33 380 -38 425 -91 37 -45
46 -89 52 -276 l6 -171 -304 -4 c-337 -4 -351 -7 -404 -69 -45 -54 -75 -127
-75 -187 0 -64 25 -118 82 -172 63 -62 105 -71 391 -79 227 -7 249 -9 275 -28
23 -17 27 -28 30 -77 3 -62 -22 -205 -44 -247 -24 -48 -109 -113 -255 -196
-368 -209 -630 -291 -1049 -328 -208 -19 -311 -19 -353 -1 -59 25 -157 148
-157 196 0 36 129 140 360 291 224 147 319 231 338 298 4 14 7 51 7 81 -1 74
-26 117 -90 149 -42 22 -61 25 -139 25 -105 -2 -188 -19 -321 -69 -53 -20
-100 -33 -107 -29 -7 5 -9 34 -5 93 12 163 54 273 155 406 81 106 97 135 88
170 -9 37 -116 147 -170 176 l-43 23 -49 -29 c-27 -15 -115 -94 -195 -174
-130 -130 -150 -155 -187 -231 -43 -88 -80 -218 -107 -375 -54 -324 -59 -798
-9 -991 59 -230 267 -386 403 -303 43 26 61 19 61 -26 0 -50 21 -94 66 -137
52 -49 119 -78 206 -87 85 -9 98 -22 98 -100 0 -70 -31 -185 -99 -365 -74
-196 -92 -271 -98 -412 -8 -183 24 -259 116 -271 140 -19 295 156 436 491 61
147 91 255 115 416 22 149 36 210 50 210 5 0 35 -7 67 -15 147 -38 199 -23
573 171 309 161 654 272 987 320 143 20 366 20 463 0 206 -43 339 -174 412
-406 20 -66 23 -95 23 -235 0 -259 -26 -311 -286 -565 -93 -91 -178 -178 -189
-195 -11 -17 -20 -47 -20 -69 0 -32 7 -46 43 -81 63 -63 136 -87 277 -92 217
-9 315 32 486 202 269 267 348 490 314 894 -25 305 -81 485 -212 678 -167 248
-409 399 -726 454 -93 15 -162 19 -373 19 l-259 0 0 338 c0 563 -21 888 -70
1077 -70 272 -267 490 -494 549 -76 20 -214 27 -301 15z"/>
<path d="M18156 3996 c-123 -46 -164 -140 -113 -265 71 -175 232 -351 321
-351 43 0 140 99 156 160 30 111 -15 253 -111 351 -102 104 -174 134 -253 105z"/>
<path d="M17645 3745 c-16 -7 -75 -50 -130 -95 -55 -44 -134 -98 -174 -118
-80 -40 -104 -42 -302 -32 -114 6 -150 -24 -171 -141 -20 -113 16 -440 62
-563 26 -67 128 -180 174 -192 33 -8 75 10 125 52 60 50 64 69 71 384 5 246 8
290 24 318 29 55 125 82 159 44 24 -26 36 -66 62 -197 29 -153 54 -223 86
-247 40 -30 145 -44 215 -29 77 18 117 57 133 129 23 109 8 269 -40 417 -41
130 -81 191 -157 243 -68 45 -90 49 -137 27z"/>
<path d="M16415 3241 c-49 -22 -79 -54 -100 -105 -60 -144 -73 -564 -20 -666
8 -16 31 -42 52 -57 30 -23 48 -28 108 -31 116 -6 195 39 245 142 75 153 81
466 11 604 -56 109 -192 161 -296 113z"/>
</g>
</svg>
