<?xml version="1.0" standalone="no"?>
<!DOCTYPE svg PUBLIC "-//W3C//DTD SVG 20010904//EN"
 "http://www.w3.org/TR/2001/REC-SVG-20010904/DTD/svg10.dtd">
<svg version="1.0" xmlns="http://www.w3.org/2000/svg"
 width="3177.000000pt" height="1018.000000pt" viewBox="0 0 3177.000000 1018.000000"
 preserveAspectRatio="xMidYMid meet">

<g transform="translate(0.000000,1018.000000) scale(0.100000,-0.100000)"
fill="#000000" stroke="none">
<path d="M24800 7080 c-210 -22 -324 -88 -387 -227 -30 -65 -40 -160 -23 -221
6 -26 28 -62 53 -89 l41 -45 -24 -19 c-14 -10 -67 -39 -117 -64 -115 -57 -184
-111 -219 -172 -23 -39 -29 -61 -32 -134 -4 -81 -2 -93 25 -151 55 -118 173
-208 272 -208 58 0 193 45 464 154 239 97 382 139 577 170 304 49 416 108 456
242 41 138 -21 255 -178 335 -32 16 -80 34 -107 40 -72 15 -122 57 -186 153
-59 90 -124 154 -191 186 -85 42 -281 65 -424 50z"/>
<path d="M27290 7068 c-33 -17 -51 -35 -70 -73 -24 -48 -25 -54 -24 -250 1
-123 10 -286 24 -425 12 -124 24 -313 27 -420 5 -175 4 -198 -11 -213 -23 -22
-151 -61 -363 -108 -272 -61 -361 -96 -414 -163 -56 -71 -75 -197 -43 -289 19
-56 90 -138 150 -173 68 -40 129 -41 384 -4 124 18 259 33 300 34 l75 1 7
-150 c4 -82 14 -546 23 -1030 25 -1403 38 -1543 152 -1646 83 -75 196 -90 267
-35 94 71 158 305 186 671 28 382 -1 1474 -56 2124 -9 101 -12 187 -7 191 4 4
53 15 108 24 149 25 416 93 503 127 140 55 226 127 250 208 7 21 12 76 12 122
0 105 -23 158 -83 193 -72 42 -147 50 -371 40 -110 -4 -256 -8 -323 -9 -115 0
-123 1 -147 24 -40 38 -63 130 -107 426 -103 698 -149 812 -332 822 -61 4 -79
1 -117 -19z"/>
<path d="M20200 6663 c-251 -24 -412 -76 -571 -184 -85 -57 -253 -222 -347
-339 -91 -114 -225 -254 -269 -281 -17 -11 -55 -27 -85 -35 -78 -23 -112 -54
-155 -141 -31 -64 -38 -87 -38 -137 0 -55 6 -73 58 -171 177 -338 186 -368
167 -519 -16 -119 -53 -260 -90 -343 -67 -148 -80 -275 -36 -369 53 -114 195
-169 331 -129 85 24 131 50 193 108 143 136 228 383 239 697 7 207 -10 331
-74 541 l-46 151 219 220 c121 121 236 233 257 250 l38 30 227 14 c125 8 246
11 270 8 57 -8 86 -33 121 -107 52 -106 65 -175 65 -337 -1 -172 -18 -281 -80
-499 -72 -255 -79 -403 -24 -511 41 -80 129 -125 242 -124 217 2 404 299 485
769 24 143 24 523 0 654 -76 402 -294 671 -607 750 -128 32 -351 48 -490 34z"/>
<path d="M13213 6446 c-109 -34 -173 -107 -194 -221 -12 -68 1 -146 38 -220
55 -107 218 -243 352 -293 97 -36 217 -36 286 0 128 67 182 208 131 343 -46
121 -222 331 -318 379 -46 23 -64 26 -152 25 -56 0 -120 -6 -143 -13z"/>
<path d="M16700 6429 c-103 -57 -140 -111 -140 -207 0 -124 92 -241 249 -315
l84 -39 -24 -20 c-13 -10 -106 -59 -206 -109 -301 -149 -383 -222 -383 -336 0
-60 24 -119 71 -176 69 -84 156 -77 794 64 596 132 782 193 887 287 97 88 92
220 -11 289 -73 49 -151 64 -381 73 -118 5 -227 13 -241 18 -30 12 -39 30 -39
76 0 56 -54 148 -130 219 -84 80 -183 140 -293 178 -109 38 -165 38 -237 -2z"/>
<path d="M12203 6430 c-64 -33 -157 -137 -174 -196 -15 -52 -15 -364 -1 -762
4 -105 5 -192 2 -192 -3 0 -97 -16 -209 -35 -425 -74 -963 -217 -1136 -302
-97 -47 -153 -133 -163 -248 -10 -129 52 -248 157 -302 56 -29 72 -33 144 -33
95 0 162 11 486 79 303 64 546 106 744 129 l157 19 10 -36 c5 -20 34 -133 65
-251 105 -405 250 -807 409 -1135 147 -303 261 -460 531 -731 237 -239 371
-330 542 -368 265 -59 543 53 645 262 29 59 33 77 36 169 5 117 -8 183 -44
230 -42 55 -94 63 -314 49 l-125 -8 -46 31 c-67 45 -274 262 -345 361 -155
216 -314 528 -468 917 -169 426 -183 488 -126 536 38 33 111 44 365 57 340 18
481 41 595 98 90 45 125 89 141 177 11 61 6 166 -11 210 -14 37 -88 113 -138
142 -89 52 -186 62 -866 84 -192 6 -354 13 -361 15 -7 3 -15 36 -19 82 -19
212 -140 830 -171 879 -25 37 -134 85 -208 90 -50 3 -70 0 -104 -17z"/>
<path d="M4635 6306 c-70 -47 -244 -199 -420 -367 -177 -168 -378 -343 -531
-459 -130 -101 -244 -211 -267 -262 -9 -20 -17 -55 -17 -79 0 -37 5 -48 43
-84 151 -144 349 -123 636 69 346 231 791 771 817 992 5 39 2 59 -14 91 -34
66 -124 133 -179 133 -10 0 -41 -15 -68 -34z"/>
<path d="M7206 5730 c-207 -37 -451 -194 -611 -392 -145 -180 -154 -210 -164
-528 -9 -260 -16 -300 -55 -300 -36 0 -66 -28 -66 -60 0 -75 123 -348 173
-384 23 -17 47 -22 117 -24 154 -7 243 42 275 150 18 62 19 110 4 243 -19 165
14 253 156 418 89 103 173 171 244 198 119 44 204 34 276 -32 56 -52 80 -113
80 -204 0 -102 -23 -140 -174 -293 -154 -155 -196 -226 -196 -327 1 -93 55
-174 149 -222 67 -35 200 -43 296 -19 218 54 433 232 536 441 52 106 64 171
64 340 0 276 -30 430 -111 563 -129 212 -310 353 -530 414 -84 22 -375 34
-463 18z"/>
<path d="M25130 5440 c-115 -30 -235 -95 -307 -165 -50 -50 -64 -71 -78 -119
-46 -157 28 -263 190 -274 172 -11 492 100 605 211 75 74 88 137 45 224 -45
90 -133 133 -285 139 -73 3 -112 0 -170 -16z"/>
<path d="M4445 5159 c-43 -12 -73 -43 -84 -87 -19 -70 -59 -336 -87 -572 -15
-129 -32 -240 -38 -246 -6 -6 -94 -44 -196 -84 -235 -92 -434 -187 -483 -230
-80 -69 -105 -185 -62 -275 47 -96 159 -164 273 -166 96 -1 146 -12 150 -32 2
-10 -26 -62 -62 -115 -118 -176 -189 -353 -190 -473 -1 -68 2 -79 27 -112 40
-52 93 -77 165 -77 118 0 198 49 256 157 39 75 63 109 70 102 15 -15 31 -193
56 -614 14 -224 45 -537 64 -636 59 -309 248 -476 434 -383 92 46 154 142 167
259 12 108 -23 966 -55 1375 -25 318 -42 870 -26 870 3 0 64 18 138 41 331
101 578 236 685 373 48 62 56 125 21 176 -36 53 -102 98 -181 122 -71 21 -73
21 -187 5 -63 -9 -180 -33 -260 -52 -175 -42 -243 -45 -264 -12 -17 26 -41
167 -56 327 -24 266 -40 334 -80 355 -32 17 -145 19 -195 4z"/>
<path d="M17101 4945 c-170 -31 -295 -102 -322 -182 -6 -20 -11 -64 -11 -99 0
-89 23 -131 92 -166 47 -25 65 -28 146 -28 193 0 429 66 505 142 56 56 62 157
14 230 -32 48 -97 85 -181 103 -83 18 -145 18 -243 0z"/>
<path d="M25159 4690 c-192 -55 -416 -168 -512 -259 -101 -95 -111 -229 -24
-343 48 -64 86 -80 177 -75 102 6 200 41 415 148 312 157 385 218 385 323 0
62 -19 104 -67 147 -85 77 -231 100 -374 59z"/>
<path d="M17166 4404 c-146 -35 -281 -132 -305 -220 -25 -91 -2 -202 54 -258
64 -64 207 -73 363 -20 152 50 263 129 306 216 34 69 33 93 -9 156 -84 125
-230 169 -409 126z"/>
<path d="M25216 4029 c-167 -15 -315 -65 -468 -157 -172 -104 -298 -233 -368
-377 -52 -107 -93 -287 -93 -415 -1 -113 15 -174 107 -411 125 -325 168 -379
297 -379 76 0 130 34 164 104 62 126 56 295 -16 510 -36 106 -40 130 -37 192
3 58 8 78 30 110 47 66 126 108 267 140 69 16 531 33 531 20 0 -4 -29 -56 -65
-116 -108 -183 -144 -292 -124 -381 12 -53 31 -76 84 -100 56 -26 192 -26 276
1 217 66 419 288 479 526 36 140 22 256 -50 411 -83 179 -225 277 -459 317
-104 18 -380 20 -555 5z"/>
<path d="M20395 3873 c-174 -8 -350 -34 -452 -68 -256 -85 -488 -238 -667
-440 -94 -105 -134 -164 -157 -232 -27 -76 -49 -230 -49 -343 1 -153 29 -193
201 -289 117 -64 192 -118 186 -134 -4 -12 -145 -123 -297 -232 -116 -83 -240
-208 -273 -275 -62 -125 -15 -224 135 -282 83 -33 260 -37 363 -9 238 66 542
225 750 394 l79 64 174 -58 c211 -71 347 -99 517 -106 199 -8 352 23 446 91
57 42 79 87 79 161 0 138 -77 189 -493 330 l-237 81 33 54 c18 30 81 122 141
204 182 250 244 358 288 496 19 63 23 96 23 210 0 155 -11 190 -85 273 -62 70
-113 96 -211 107 -77 9 -325 10 -494 3z m-52 -639 c3 -4 0 -19 -8 -34 -17 -34
-169 -220 -252 -309 l-59 -64 -127 58 c-120 55 -167 85 -167 105 0 19 74 64
197 117 242 106 391 151 416 127z"/>
<path d="M11585 3779 c-489 -94 -789 -163 -907 -208 -90 -35 -149 -79 -177
-135 -21 -41 -25 -62 -25 -150 -1 -94 1 -105 29 -155 35 -64 119 -131 189
-151 67 -18 210 -8 345 25 110 28 114 28 127 10 9 -12 14 -47 14 -101 0 -100
14 -173 46 -236 23 -45 78 -98 102 -98 58 0 -82 -75 -318 -170 -182 -73 -370
-167 -422 -210 -68 -57 -90 -201 -46 -317 30 -81 132 -184 202 -203 97 -27
282 22 671 174 391 154 584 278 661 427 40 75 41 181 3 254 -55 107 -167 139
-389 111 -73 -9 -137 -13 -141 -9 -5 5 2 35 16 68 28 70 45 164 45 255 1 79
25 137 71 172 19 14 81 49 137 78 224 114 317 264 253 405 -24 54 -100 119
-170 146 -64 25 -230 35 -316 18z"/>
<path d="M5177 3499 c-86 -21 -153 -74 -184 -146 -18 -43 -17 -135 2 -180 50
-118 236 -243 431 -289 110 -25 186 -3 291 85 66 55 93 94 93 136 0 168 -438
442 -633 394z"/>
<path d="M7060 3499 c-278 -18 -346 -35 -411 -99 -155 -154 -97 -429 104 -496
41 -14 72 -16 161 -11 61 4 117 3 124 -2 30 -18 -42 -102 -217 -251 -82 -71
-168 -181 -177 -226 -9 -51 13 -118 62 -184 41 -56 113 -110 147 -110 22 0 31
-38 25 -105 -8 -100 -35 -114 -360 -190 -128 -31 -251 -64 -274 -75 -46 -23
-64 -53 -64 -108 0 -49 -29 -104 -63 -120 -46 -22 -60 -54 -55 -127 5 -79 39
-135 113 -180 l49 -30 155 1 c106 0 246 11 436 33 1114 128 1607 257 1814 475
44 47 51 60 51 94 0 34 -6 45 -41 77 -53 48 -125 80 -214 97 -103 19 -561 17
-740 -4 -235 -28 -268 -29 -295 -15 -16 8 -26 23 -28 41 -5 45 60 96 234 181
84 42 180 96 213 120 105 77 145 169 107 244 -33 62 -156 141 -222 141 -18 0
-42 9 -55 19 -22 17 -24 27 -24 104 0 77 2 88 25 112 14 15 66 46 116 70 159
74 224 155 224 276 0 82 -13 125 -47 162 -75 79 -173 97 -501 96 -136 -1 -303
-6 -372 -10z"/>
<path d="M17224 3450 c-332 -38 -519 -141 -765 -424 -110 -126 -142 -189 -147
-295 -9 -174 68 -447 160 -563 60 -77 186 -102 278 -55 74 37 85 62 84 180 -2
103 -4 113 -90 398 -6 21 145 123 235 159 140 56 307 90 446 90 109 0 152 -11
206 -53 92 -71 127 -192 95 -330 -22 -92 -20 -182 3 -233 26 -58 54 -74 126
-74 155 0 315 149 385 360 54 161 -17 382 -190 589 -106 126 -212 197 -348
232 -87 23 -354 34 -478 19z"/>
</g>
</svg>
