<?xml version="1.0" standalone="no"?>
<!DOCTYPE svg PUBLIC "-//W3C//DTD SVG 20010904//EN"
 "http://www.w3.org/TR/2001/REC-SVG-20010904/DTD/svg10.dtd">
<svg version="1.0" xmlns="http://www.w3.org/2000/svg"
 width="3840.000000pt" height="2160.000000pt" viewBox="0 0 3840.000000 2160.000000"
 preserveAspectRatio="xMidYMid meet">

<g transform="translate(0.000000,2160.000000) scale(0.100000,-0.100000)"
fill="#000000" stroke="none">
<path d="M6116 11854 c-23 -22 -30 -62 -18 -89 7 -14 42 -40 89 -64 82 -44
119 -68 112 -74 -2 -2 -25 -16 -51 -31 -92 -53 -228 -229 -213 -276 4 -11 17
-27 30 -36 33 -21 61 -5 115 67 25 33 60 72 78 85 128 98 362 134 472 73 57
-31 73 -61 64 -119 -3 -25 -7 -63 -8 -85 -1 -34 2 -41 26 -49 37 -13 83 8 110
53 31 49 31 157 0 217 -28 55 -92 108 -161 136 -47 19 -75 22 -176 22 -66 0
-136 -5 -155 -11 l-35 -10 0 38 c0 51 -29 80 -128 129 -85 43 -126 49 -151 24z"/>
<path d="M7920 11475 l-24 -26 19 -67 c21 -71 26 -227 11 -307 -10 -52 16 -81
63 -70 28 6 43 20 79 71 10 16 12 -35 7 -278 l-5 -298 25 -16 c23 -15 27 -15
50 0 36 24 51 60 64 156 l12 86 61 23 c77 30 138 83 138 120 0 55 -50 66 -142
31 -29 -11 -54 -20 -55 -20 -2 0 -3 18 -3 39 0 37 4 42 60 79 33 22 82 48 110
57 76 25 101 74 59 116 -30 30 -108 22 -187 -17 l-60 -30 -6 36 c-12 74 -11
76 72 120 139 75 175 135 111 183 -34 25 -58 17 -195 -58 -54 -30 -103 -54
-108 -52 -5 2 -17 27 -26 55 -10 29 -25 61 -35 72 -25 28 -67 25 -95 -5z"/>
<path d="M5916 11378 c-27 -44 -58 -161 -60 -223 -1 -73 19 -105 65 -105 39 0
55 30 62 112 4 37 13 94 22 128 15 56 15 64 0 86 -21 32 -69 33 -89 2z"/>
<path d="M7677 11360 c-20 -16 -26 -32 -32 -82 -4 -35 -13 -83 -21 -106 -13
-44 -20 -58 -103 -181 -31 -47 -41 -71 -37 -88 8 -28 49 -40 87 -26 15 6 30 8
33 5 3 -3 6 -91 6 -196 0 -159 3 -195 16 -214 22 -32 70 -26 98 11 19 26 21
44 24 197 3 147 1 178 -18 254 l-22 87 27 60 c17 39 30 93 38 156 l11 96 -28
23 c-33 29 -46 30 -79 4z"/>
<path d="M6513 11270 c-55 -11 -92 -36 -100 -68 -11 -45 7 -57 93 -62 87 -6
91 -9 93 -92 l1 -38 -79 0 c-71 0 -82 -2 -95 -22 -21 -30 -20 -54 4 -78 16
-16 33 -20 95 -20 82 0 82 0 69 -69 -5 -26 -18 -38 -69 -66 -88 -50 -158 -71
-254 -78 -78 -6 -85 -5 -102 15 -11 11 -19 27 -19 35 0 7 31 34 69 58 87 56
101 70 101 101 0 47 -59 55 -144 19 -17 -8 -19 -5 -14 38 4 30 15 57 32 77 14
17 26 36 26 41 0 13 -38 49 -51 49 -7 0 -33 -21 -59 -47 -41 -42 -50 -57 -64
-120 -20 -90 -21 -232 -2 -278 19 -45 61 -73 87 -57 16 10 19 9 19 -6 0 -26
32 -52 63 -52 23 0 27 -4 27 -27 0 -16 -11 -55 -25 -88 -44 -108 -27 -188 33
-154 38 21 93 133 101 205 3 33 9 58 14 57 49 -15 60 -13 141 31 139 76 323
109 396 71 43 -22 71 -75 72 -139 2 -63 -14 -92 -79 -149 -24 -21 -43 -44 -43
-51 0 -42 92 -61 149 -31 42 21 100 93 112 139 17 61 6 175 -20 230 -51 105
-138 156 -268 156 l-83 0 0 135 c0 150 -11 219 -43 266 -44 64 -101 86 -184
69z"/>
<path d="M6778 10539 c-10 -5 -18 -19 -18 -31 0 -38 54 -108 84 -108 2 0 12 7
20 16 26 25 20 72 -13 105 -31 31 -46 34 -73 18z"/>
<path d="M6643 10466 c-44 -37 -68 -46 -105 -40 -51 9 -62 -10 -53 -97 6 -57
12 -77 32 -97 22 -22 26 -23 46 -9 20 13 22 23 21 93 -2 80 4 94 37 94 12 0
19 -13 24 -47 4 -27 12 -54 17 -60 13 -16 60 -17 76 -1 27 27 6 147 -31 173
-28 20 -30 19 -64 -9z"/>
<path d="M6357 10352 c-21 -23 -27 -153 -8 -176 22 -26 68 -20 88 11 25 38 25
134 -1 162 -23 26 -57 27 -79 3z"/>
</g>
</svg>
